SplineFontDB: 3.0
FontName: Comme-Thin
FullName: Comme Thin
FamilyName: Comme
Weight: Regular
Copyright: Digitized data Copyright (c) 2011-2014, vernon adams.
Version: 2
ItalicAngle: 0
UnderlinePosition: 0
UnderlineWidth: 0
Ascent: 1638
Descent: 410
UFOAscent: 1560
UFODescent: -556
LayerCount: 2
Layer: 0 0 "Back"  1
Layer: 1 0 "Fore"  0
OS2Version: 0
OS2_WeightWidthSlopeOnly: 0
OS2_UseTypoMetrics: 0
CreationTime: 1392151621
ModificationTime: 1392242728
PfmFamily: 0
TTFWeight: 100
TTFWidth: 5
LineGap: 0
VLineGap: 0
OS2TypoAscent: 1638
OS2TypoAOffset: 0
OS2TypoDescent: -512
OS2TypoDOffset: 0
OS2TypoLinegap: 0
OS2WinAscent: 2390
OS2WinAOffset: 0
OS2WinDescent: 512
OS2WinDOffset: 0
HheadAscent: 0
HheadAOffset: 1
HheadDescent: 0
HheadDOffset: 1
OS2Vendor: 'NeWT'
Lookup: 4 0 1 "ligaStandardLigatureslookup0"  {"ligaStandardLigatureslookup0 subtable"  } ['liga' ('latn' <'dflt' > 'grek' <'dflt' > 'DFLT' <'dflt' > ) ]
Lookup: 4 0 0 "fracDiagonalFractionslookup11"  {"fracDiagonalFractionslookup11 subtable"  } ['frac' ('latn' <'dflt' 'CAT ' 'MOL ' 'ROM ' 'TRK ' > 'grek' <'dflt' > 'DFLT' <'dflt' > ) ]
Lookup: 6 0 0 "ordnOrdinalslookup12"  {"ordnOrdinalslookup12 contextual 0"  "ordnOrdinalslookup12 contextual 1"  } ['ordn' ('latn' <'dflt' 'CAT ' 'MOL ' 'ROM ' 'TRK ' > 'grek' <'dflt' > 'DFLT' <'dflt' > ) ]
Lookup: 1 0 0 "Single Substitution lookup 3"  {"Single Substitution lookup 3 subtable"  } []
Lookup: 1 0 0 "Single Substitution lookup 4"  {"Single Substitution lookup 4 subtable"  } []
Lookup: 4 0 0 "dligDiscretionaryLigatureslooku"  {"dligDiscretionaryLigatureslooku subtable"  } ['dlig' ('latn' <'dflt' 'CAT ' 'MOL ' 'ROM ' 'TRK ' > 'grek' <'dflt' > 'DFLT' <'dflt' > ) ]
DEI: 91125
ChainSub2: coverage "ordnOrdinalslookup12 contextual 1"  0 0 0 1
 1 1 0
  Coverage: 3 O o
  BCoverage: 49 zero one two three four five six seven eight nine
 1
  SeqLookup: 0 "Single Substitution lookup 4" 
EndFPST
ChainSub2: coverage "ordnOrdinalslookup12 contextual 0"  0 0 0 1
 1 1 0

StartChar: A
Encoding: 33 65 0
Width: 1278
VWidth: 0
GlyphClass: 2
Flags: W
PickledData: "(dp1
S'org.pippin.gimp.org.kernagic'
p2
(dp3
S'lstem'
p4
I0
sS'rstem'
p5
I0
ssS'com.typemytype.robofont.layerData'
p6
(dp7
sS'org.robofab.postScriptHintData'
p8
(dp9
s."
AnchorPoint: "top" 639 1455 basechar 0
AnchorPoint: "bot" 639 0 basechar 0
LayerCount: 2
Fore
SplineSet
364 582 m 257
 638 1339 l 257
 927 582 l 257
 364 582 l 257
607 1455 m 257
 50 0 l 257
 141 0 l 257
 338 514 l 257
 952 514 l 257
 1145 0 l 257
 1227 0 l 257
 670 1455 l 257
 607 1455 l 257
EndSplineSet
Substitution2: "Single Substitution lookup 3 subtable" ordfeminine
EndChar

StartChar: AE
Encoding: 133 198 1
Width: 1939
VWidth: 0
GlyphClass: 2
Flags: W
PickledData: "(dp1
S'org.pippin.gimp.org.kernagic'
p2
(dp3
S'lstem'
p4
I0
sS'rstem'
p5
I0
ssS'com.typemytype.robofont.layerData'
p6
(dp7
sS'org.robofab.postScriptHintData'
p8
(dp9
s."
LayerCount: 2
Fore
SplineSet
1034 1455 m 257
 55 0 l 257
 154 0 l 257
 497 514 l 257
 1060 514 l 257
 1060 0 l 257
 1881 0 l 257
 1889 69 l 257
 1144 69 l 257
 1144 711 l 257
 1803 711 l 257
 1803 780 l 257
 1144 780 l 257
 1144 1384 l 257
 1887 1384 l 257
 1890 1455 l 257
 1034 1455 l 257
1060 582 m 257
 544 582 l 257
 1060 1366 l 257
 1060 582 l 257
EndSplineSet
EndChar

StartChar: B
Encoding: 34 66 13
Width: 1366
VWidth: 0
GlyphClass: 2
Flags: W
PickledData: "(dp1
S'org.pippin.gimp.org.kernagic'
p2
(dp3
S'lstem'
p4
I0
sS'rstem'
p5
I0
ssS'com.typemytype.robofont.layerData'
p6
(dp7
sS'org.robofab.postScriptHintData'
p8
(dp9
s."
AnchorPoint: "top" 685 1456 basechar 0
LayerCount: 2
Fore
SplineSet
314 729 m 257
 647 729 l 258
 988 729 1151 652 1151 393 c 256
 1151 148 1070 59 600 59 c 256
 517 59 422 62 314 67 c 257
 314 729 l 257
314 1386 m 257
 412 1390 499 1393 574 1393 c 256
 989 1393 1098 1324 1098 1098 c 256
 1098 851 941 803 730 803 c 258
 314 803 l 257
 314 1386 l 257
571 -13 m 256
 1135 -13 1244 130 1244 400 c 256
 1244 595 1135 716 916 761 c 257
 1138 825 1182 942 1182 1104 c 256
 1182 1342 1068 1467 552 1467 c 256
 456 1467 347 1463 222 1454 c 257
 222 0 l 257
 354 -9 469 -13 571 -13 c 256
EndSplineSet
EndChar

StartChar: C
Encoding: 35 67 14
Width: 1367
VWidth: 0
GlyphClass: 2
Flags: W
PickledData: "(dp1
S'org.pippin.gimp.org.kernagic'
p2
(dp3
S'lstem'
p4
I0
sS'rstem'
p5
I0
ssS'com.typemytype.robofont.layerData'
p6
(dp7
sS'org.robofab.postScriptHintData'
p8
(dp9
s."
AnchorPoint: "top" 820 1455 basechar 0
AnchorPoint: "bot" 827 0 basechar 0
LayerCount: 2
Fore
SplineSet
148 728 m 256
 148 268 399 -20 797 -20 c 256
 1005 -20 1191 100 1269 294 c 257
 1209 318 l 257
 1196 318 l 257
 1127 153 972 49 797 49 c 256
 455 49 241 310 241 728 c 256
 241 1146 455 1407 797 1407 c 256
 972 1407 1127 1303 1196 1138 c 257
 1210 1138 l 257
 1269 1163 l 257
 1191 1356 1005 1476 797 1476 c 256
 399 1476 148 1188 148 728 c 256
EndSplineSet
EndChar

StartChar: D
Encoding: 36 68 20
Width: 1525
VWidth: 0
GlyphClass: 2
Flags: W
PickledData: "(dp1
S'org.pippin.gimp.org.kernagic'
p2
(dp3
S'lstem'
p4
I0
sS'rstem'
p5
I0
ssS'com.fontlab.hintData'
p6
(dp7
S'vhints'
p8
((dp9
S'position'
p10
I1280
sS'width'
p11
I122
stp12
sS'hhints'
p13
((dp14
g10
I0
sg11
I94
s(dp15
g10
I1355
sg11
I94
stp16
ssS'com.typemytype.robofont.layerData'
p17
(dp18
sS'org.robofab.postScriptHintData'
p19
(dp20
s."
HStem: 0 94 1355 94
VStem: 1280 122
AnchorPoint: "top" 762 1455 basechar 0
AnchorPoint: "bot" 765 0 basechar 0
LayerCount: 2
Fore
SplineSet
314 66 m 257
 314 1388 l 257
 385 1392 451 1394 513 1394 c 256
 1112 1394 1285 1206 1285 724 c 256
 1285 273 1115 58 524 58 c 256
 459 58 389 61 314 66 c 257
222 0 m 257
 319 -6 408 -10 490 -10 c 256
 1180 -10 1378 221 1378 729 c 256
 1378 1241 1190 1468 530 1468 c 256
 437 1468 335 1464 222 1455 c 257
 222 0 l 257
EndSplineSet
EndChar

StartChar: uni0394
Encoding: 413 916 23
Width: 1359
VWidth: 0
GlyphClass: 2
Flags: W
PickledData: "(dp1
S'org.pippin.gimp.org.kernagic'
p2
(dp3
S'lstem'
p4
I0
sS'rstem'
p5
I0
ssS'com.typemytype.robofont.layerData'
p6
(dp7
S'b'
(dp8
S'name'
p9
S'Delta'
p10
sS'lib'
p11
(dp12
sS'unicodes'
p13
(tsS'width'
p14
I1334
sS'contours'
p15
(tsS'components'
p16
(tsS'anchors'
p17
(tsssS'org.robofab.postScriptHintData'
p18
(dp19
s."
LayerCount: 2
Fore
SplineSet
122 0 m 257
 1203 0 l 257
 700 1500 l 257
 608 1500 l 257
 122 0 l 257
229 88 m 257
 650 1415 l 257
 1095 88 l 257
 229 88 l 257
EndSplineSet
EndChar

StartChar: E
Encoding: 37 69 24
Width: 1135
VWidth: 0
GlyphClass: 2
Flags: W
PickledData: "(dp1
S'org.pippin.gimp.org.kernagic'
p2
(dp3
S'lstem'
p4
I0
sS'rstem'
p5
I0
ssS'com.typemytype.robofont.layerData'
p6
(dp7
sS'org.robofab.postScriptHintData'
p8
(dp9
s."
AnchorPoint: "top" 662 1455 basechar 0
AnchorPoint: "bot" 572 0 basechar 0
LayerCount: 2
Fore
SplineSet
222 1455 m 257
 222 0 l 257
 1069 0 l 257
 1077 69 l 257
 314 69 l 257
 314 710 l 257
 991 710 l 257
 991 780 l 257
 314 780 l 257
 314 1384 l 257
 1075 1384 l 257
 1077 1455 l 257
 222 1455 l 257
EndSplineSet
EndChar

StartChar: Eng
Encoding: 265 330 33
Width: 1541
VWidth: 0
GlyphClass: 2
Flags: W
PickledData: "(dp1
S'org.robofab.postScriptHintData'
p2
(dp3
s."
LayerCount: 2
Fore
SplineSet
1246 598 m 257
 1246 -27 l 258
 1246 -277 1162 -356 790 -356 c 257
 802 -423 l 257
 1244 -423 1320 -283 1320 -49 c 258
 1320 598 l 257
 1246 598 l 257
EndSplineSet
Refer: 69 78 N 1 0 0 1 0 0 2
EndChar

StartChar: Euro
Encoding: 461 8364 36
Width: 1332
VWidth: 0
GlyphClass: 2
Flags: W
PickledData: "(dp1
S'org.pippin.gimp.org.kernagic'
p2
(dp3
S'lstem'
p4
I0
sS'rstem'
p5
I0
ssS'com.typemytype.robofont.layerData'
p6
(dp7
S'b'
(dp8
S'name'
p9
S'Euro'
p10
sS'lib'
p11
(dp12
sS'unicodes'
p13
(tsS'width'
p14
I1391
sS'contours'
p15
(tsS'components'
p16
(tsS'anchors'
p17
(tsssS'org.robofab.postScriptHintData'
p18
(dp19
s."
LayerCount: 2
Fore
SplineSet
3 548 m 257
 920 548 l 257
 933 633 l 257
 217 633 l 257
 218 847 l 257
 933 847 l 257
 946 929 l 257
 25 929 l 257
 14 847 l 257
 169 847 l 257
 168 633 l 257
 15 633 l 257
 3 548 l 257
EndSplineSet
Refer: 14 67 N 1 0 0 1 -6 0 2
EndChar

StartChar: F
Encoding: 38 70 37
Width: 1056
VWidth: 0
GlyphClass: 2
Flags: W
PickledData: "(dp1
S'org.pippin.gimp.org.kernagic'
p2
(dp3
S'lstem'
p4
I0
sS'rstem'
p5
I705
ssS'com.typemytype.robofont.layerData'
p6
(dp7
sS'org.robofab.postScriptHintData'
p8
(dp9
s."
AnchorPoint: "top" 538 1455 basechar 0
LayerCount: 2
Fore
SplineSet
222 1455 m 257
 222 0 l 257
 319 0 l 257
 319 700 l 257
 936 700 l 257
 936 765 l 257
 319 765 l 257
 319 1386 l 257
 982 1386 l 257
 990 1455 l 257
 222 1455 l 257
EndSplineSet
EndChar

StartChar: G
Encoding: 39 71 38
Width: 1487
VWidth: 0
GlyphClass: 2
Flags: W
PickledData: "(dp1
S'org.pippin.gimp.org.kernagic'
p2
(dp3
S'lstem'
p4
I0
sS'rstem'
p5
I0
ssS'com.typemytype.robofont.layerData'
p6
(dp7
sS'org.robofab.postScriptHintData'
p8
(dp9
s."
AnchorPoint: "top" 855 1455 basechar 0
AnchorPoint: "bot" 861 0 basechar 0
LayerCount: 2
Fore
SplineSet
853 -18 m 256
 1052 -18 1185 11 1326 60 c 257
 1326 716 l 257
 897 716 l 257
 885 631 l 257
 1233 631 l 257
 1233 101 l 257
 1152 77 1006 53 872 53 c 256
 459 53 240 320 240 721 c 256
 240 1165 531 1400 866 1400 c 256
 1004 1400 1141 1361 1263 1286 c 257
 1273 1286 l 257
 1302 1353 l 257
 1159 1434 1006 1473 859 1473 c 256
 466 1473 147 1188 147 720 c 256
 147 313 384 -18 853 -18 c 256
EndSplineSet
EndChar

StartChar: H
Encoding: 40 72 44
Width: 1491
VWidth: 0
GlyphClass: 2
Flags: W
PickledData: "(dp1
S'org.pippin.gimp.org.kernagic'
p2
(dp3
S'lstem'
p4
I0
sS'rstem'
p5
I0
ssS'com.typemytype.robofont.layerData'
p6
(dp7
sS'org.robofab.postScriptHintData'
p8
(dp9
s."
AnchorPoint: "top" 747 1455 basechar 0
LayerCount: 2
Fore
SplineSet
1180 717 m 257
 1180 0 l 257
 1272 0 l 257
 1272 1455 l 257
 1180 1455 l 257
 1180 778 l 257
 311 778 l 257
 311 1455 l 257
 218 1455 l 257
 218 0 l 257
 311 0 l 257
 311 717 l 257
 1180 717 l 257
EndSplineSet
EndChar

StartChar: Hbar
Encoding: 229 294 45
Width: 1486
VWidth: 0
GlyphClass: 2
Flags: W
PickledData: "(dp1
S'org.pippin.gimp.org.kernagic'
p2
(dp3
S'lstem'
p4
I0
sS'rstem'
p5
I0
ssS'com.typemytype.robofont.layerData'
p6
(dp7
sS'org.robofab.postScriptHintData'
p8
(dp9
s."
LayerCount: 2
Fore
SplineSet
105 1143 m 257
 105 1084 l 257
 1377 1084 l 257
 1377 1143 l 257
 105 1143 l 257
EndSplineSet
Refer: 44 72 N 1 0 0 1 0 0 2
EndChar

StartChar: I
Encoding: 41 73 47
Width: 751
VWidth: 0
GlyphClass: 2
Flags: W
PickledData: "(dp1
S'org.pippin.gimp.org.kernagic'
p2
(dp3
S'lstem'
p4
I0
sS'rstem'
p5
I0
ssS'com.fontlab.hintData'
p6
(dp7
S'vhints'
p8
((dp9
S'position'
p10
I111
sS'width'
p11
I529
stp12
sS'hhints'
p13
((dp14
g10
I0
sg11
I86
s(dp15
g10
I1363
sg11
I86
stp16
ssS'com.typemytype.robofont.layerData'
p17
(dp18
sS'org.robofab.postScriptHintData'
p19
(dp20
s."
HStem: 0 86 1363 86
VStem: 111 529
AnchorPoint: "top" 375 1455 basechar 0
LayerCount: 2
Fore
SplineSet
119 1455 m 257
 119 1397 l 257
 330 1397 l 257
 330 58 l 257
 119 58 l 257
 119 0 l 257
 633 0 l 257
 633 58 l 257
 423 58 l 257
 423 1397 l 257
 633 1397 l 257
 633 1455 l 257
 119 1455 l 257
EndSplineSet
EndChar

StartChar: J
Encoding: 42 74 58
Width: 674
VWidth: 0
GlyphClass: 2
Flags: W
PickledData: "(dp1
S'org.pippin.gimp.org.kernagic'
p2
(dp3
S'lstem'
p4
I132
sS'rstem'
p5
I0
ssS'com.typemytype.robofont.layerData'
p6
(dp7
sS'org.robofab.postScriptHintData'
p8
(dp9
s."
AnchorPoint: "top" 406 1455 basechar 0
LayerCount: 2
Fore
SplineSet
358 1455 m 257
 358 63 l 258
 358 -153 312 -177 136 -252 c 257
 72 -278 l 257
 103 -351 l 257
 160 -329 l 257
 395 -235 451 -179 451 99 c 258
 451 1455 l 257
 358 1455 l 257
EndSplineSet
EndChar

StartChar: K
Encoding: 43 75 60
Width: 1241
VWidth: 0
GlyphClass: 2
Flags: W
PickledData: "(dp1
S'org.pippin.gimp.org.kernagic'
p2
(dp3
S'lstem'
p4
I0
sS'rstem'
p5
I851
ssS'com.typemytype.robofont.layerData'
p6
(dp7
sS'org.robofab.postScriptHintData'
p8
(dp9
s."
AnchorPoint: "top" 623 1455 basechar 0
AnchorPoint: "bot" 623 0 basechar 0
LayerCount: 2
Fore
SplineSet
1139 1456 m 257
 1035 1456 l 257
 314 724 l 257
 314 1456 l 257
 222 1456 l 257
 222 0 l 257
 314 0 l 257
 314 639 l 257
 441 764 l 257
 1076 0 l 257
 1180 0 l 257
 1180 7 l 257
 514 809 l 257
 1139 1449 l 257
 1139 1456 l 257
EndSplineSet
EndChar

StartChar: L
Encoding: 44 76 62
Width: 1081
VWidth: 0
GlyphClass: 2
Flags: W
PickledData: "(dp1
S'org.pippin.gimp.org.kernagic'
p2
(dp3
S'lstem'
p4
I0
sS'rstem'
p5
I597
ssS'com.typemytype.robofont.layerData'
p6
(dp7
sS'org.robofab.postScriptHintData'
p8
(dp9
s."
AnchorPoint: "top" 533 1455 basechar 0
AnchorPoint: "bot" 635 0 basechar 0
LayerCount: 2
Fore
SplineSet
222 1455 m 257
 222 0 l 257
 1020 0 l 257
 1017 69 l 257
 314 69 l 257
 314 1455 l 257
 222 1455 l 257
EndSplineSet
EndChar

StartChar: M
Encoding: 45 77 68
Width: 1765
VWidth: 0
GlyphClass: 2
Flags: W
PickledData: "(dp1
S'org.pippin.gimp.org.kernagic'
p2
(dp3
S'lstem'
p4
I0
sS'rstem'
p5
I0
ssS'com.typemytype.robofont.guides'
p6
((dp7
S'y'
I378
sS'x'
I548
sS'magnetic'
p8
I5
sS'angle'
p9
I0
sS'isGlobal'
p10
I00
stp11
sS'com.fontlab.hintData'
p12
(dp13
S'vhints'
p14
((dp15
S'position'
p16
I185
sS'width'
p17
I166
s(dp18
g16
I214
sg17
I151
s(dp19
g16
I332
sg17
I33
s(dp20
g16
I1463
sg17
I149
s(dp21
g16
I1463
sg17
I39
s(dp22
g16
I1477
sg17
I164
stp23
ssS'com.typemytype.robofont.layerData'
p24
(dp25
sS'org.robofab.postScriptHintData'
p26
(dp27
s."
VStem: 185 166 214 151 332 33 1463 149 1463 39 1477 164
AnchorPoint: "top" 884 1455 basechar 0
LayerCount: 2
Fore
SplineSet
205 0 m 257
 289 0 l 257
 289 581 l 257
 301 1370 l 257
 845 134 l 257
 926 134 l 257
 1467 1359 l 257
 1478 583 l 257
 1478 0 l 257
 1563 0 l 257
 1563 581 l 257
 1543 1455 l 257
 1422 1455 l 257
 886 227 l 257
 350 1455 l 257
 220 1455 l 257
 205 581 l 257
 205 0 l 257
EndSplineSet
EndChar

StartChar: N
Encoding: 46 78 69
Width: 1541
VWidth: 0
GlyphClass: 2
Flags: W
PickledData: "(dp1
S'org.pippin.gimp.org.kernagic'
p2
(dp3
S'lstem'
p4
I0
sS'rstem'
p5
I0
ssS'com.typemytype.robofont.layerData'
p6
(dp7
sS'org.robofab.postScriptHintData'
p8
(dp9
s."
AnchorPoint: "top" 773 1455 basechar 0
AnchorPoint: "bot" 772 0 basechar 0
LayerCount: 2
Fore
SplineSet
1246 1455 m 257
 1246 472 l 257
 1252 110 l 257
 299 1455 l 257
 222 1455 l 257
 222 0 l 257
 297 0 l 257
 297 992 l 257
 288 1344 l 257
 1240 0 l 257
 1320 0 l 257
 1320 1455 l 257
 1246 1455 l 257
EndSplineSet
EndChar

StartChar: O
Encoding: 47 79 75
Width: 1644
VWidth: 0
GlyphClass: 2
Flags: W
PickledData: "(dp1
S'org.pippin.gimp.org.kernagic'
p2
(dp3
S'lstem'
p4
I0
sS'rstem'
p5
I0
ssS'com.typemytype.robofont.guides'
p6
(tsS'com.fontlab.hintData'
p7
(dp8
S'vhints'
p9
((dp10
S'position'
p11
I150
sS'width'
p12
I122
s(dp13
g11
I1390
sg12
I122
stp14
sS'hhints'
p15
((dp16
g11
I-19
sg12
I96
s(dp17
g11
I1372
sg12
I96
stp18
ssS'com.typemytype.robofont.layerData'
p19
(dp20
sS'org.robofab.postScriptHintData'
p21
(dp22
s."
HStem: -19 96 1372 96
VStem: 150 122 1390 122
AnchorPoint: "top" 822 1455 basechar 0
LayerCount: 2
Fore
SplineSet
148 714 m 256
 148 283 356 -19 826 -19 c 256
 1286 -19 1497 292 1497 710 c 256
 1497 1157 1268 1474 827 1474 c 256
 370 1474 148 1163 148 714 c 256
1404 714 m 256
 1404 328 1246 50 823 50 c 256
 401 50 241 328 241 714 c 256
 241 1124 418 1405 826 1405 c 256
 1234 1405 1404 1120 1404 714 c 256
EndSplineSet
Substitution2: "Single Substitution lookup 4 subtable" ordmasculine
EndChar

StartChar: OE
Encoding: 273 338 76
Width: 2738
VWidth: 0
GlyphClass: 2
Flags: W
PickledData: "(dp1
S'org.pippin.gimp.org.kernagic'
p2
(dp3
S'lstem'
p4
I0
sS'rstem'
p5
I0
ssS'com.typemytype.robofont.layerData'
p6
(dp7
S'b'
(dp8
S'name'
p9
S'OE'
p10
sS'lib'
p11
(dp12
sS'unicodes'
p13
(tsS'width'
p14
I2367
sS'contours'
p15
(tsS'components'
p16
(tsS'anchors'
p17
(tsssS'org.robofab.postScriptHintData'
p18
(dp19
s."
LayerCount: 2
Fore
SplineSet
147 714 m 256
 147 283 355 -19 825 -19 c 256
 1112 -19 1302 106 1403 303 c 257
 1403 0 l 257
 2251 0 l 257
 2258 69 l 257
 1496 69 l 257
 1496 710 l 257
 2172 710 l 257
 2172 780 l 257
 1496 780 l 257
 1496 1384 l 257
 2256 1384 l 257
 2259 1455 l 257
 1403 1455 l 257
 1403 1131 l 257
 1300 1343 1105 1474 826 1474 c 256
 369 1474 147 1163 147 714 c 256
1403 714 m 256
 1403 328 1245 50 822 50 c 256
 400 50 240 328 240 714 c 256
 240 1124 417 1405 825 1405 c 256
 1233 1405 1403 1120 1403 714 c 256
EndSplineSet
EndChar

StartChar: Oslash
Encoding: 151 216 84
Width: 1678
VWidth: 0
GlyphClass: 2
Flags: W
PickledData: "(dp1
S'org.pippin.gimp.org.kernagic'
p2
(dp3
S'lstem'
p4
I0
sS'rstem'
p5
I0
ssS'com.typemytype.robofont.layerData'
p6
(dp7
sS'org.robofab.postScriptHintData'
p8
(dp9
s."
AnchorPoint: "top" 827 1456 basechar 0
LayerCount: 2
Fore
SplineSet
479 -218 m 257
 573 17 l 257
 647 -6 731 -19 826 -19 c 256
 1286 -19 1497 292 1497 710 c 256
 1497 1040 1372 1299 1130 1413 c 257
 1226 1649 l 257
 1167 1669 l 257
 1073 1435 l 257
 1000 1460 919 1474 827 1474 c 256
 370 1474 148 1163 148 714 c 256
 148 393 264 143 517 37 c 257
 424 -197 l 257
 479 -218 l 257
545 103 m 257
 329 202 241 428 241 714 c 256
 241 1124 418 1405 826 1405 c 256
 909 1405 983 1393 1047 1371 c 257
 545 103 l 257
823 50 m 256
 739 50 665 61 600 82 c 257
 1103 1349 l 257
 1313 1246 1404 1013 1404 714 c 256
 1404 328 1246 50 823 50 c 256
EndSplineSet
EndChar

StartChar: P
Encoding: 48 80 87
Width: 1203
VWidth: 0
GlyphClass: 2
Flags: W
PickledData: "(dp1
S'org.pippin.gimp.org.kernagic'
p2
(dp3
S'lstem'
p4
I0
sS'rstem'
p5
I807
ssS'com.typemytype.robofont.layerData'
p6
(dp7
sS'org.robofab.postScriptHintData'
p8
(dp9
s."
AnchorPoint: "top" 605 1455 basechar 0
LayerCount: 2
Fore
SplineSet
314 799 m 257
 314 1387 l 257
 403 1391 482 1394 551 1394 c 256
 913 1394 1010 1326 1010 1115 c 256
 1010 860 928 794 531 794 c 256
 467 794 395 796 314 799 c 257
222 1454 m 257
 222 0 l 257
 314 0 l 257
 314 729 l 257
 395 724 468 722 534 722 c 256
 990 722 1102 837 1102 1112 c 256
 1102 1365 983 1466 533 1466 c 256
 443 1466 340 1462 222 1454 c 257
EndSplineSet
EndChar

StartChar: Q
Encoding: 49 81 88
Width: 1642
VWidth: 0
GlyphClass: 2
Flags: W
PickledData: "(dp1
S'org.pippin.gimp.org.kernagic'
p2
(dp3
S'lstem'
p4
I0
sS'rstem'
p5
I0
ssS'com.typemytype.robofont.layerData'
p6
(dp7
sS'org.robofab.postScriptHintData'
p8
(dp9
s."
LayerCount: 2
Fore
SplineSet
975 14 m 257
 1061 -166 1234 -343 1269 -395 c 257
 1319 -346 l 257
 1252 -272 1086 -78 1037 37 c 257
 975 14 l 257
EndSplineSet
Refer: 75 79 N 1 0 0 1 0 0 2
EndChar

StartChar: R
Encoding: 50 82 89
Width: 1399
VWidth: 0
GlyphClass: 2
Flags: W
PickledData: "(dp1
S'org.pippin.gimp.org.kernagic'
p2
(dp3
S'lstem'
p4
I0
sS'rstem'
p5
I839
ssS'com.fontlab.hintData'
p6
(dp7
S'vhints'
p8
((dp9
S'position'
p10
I1122
sS'width'
p11
I117
stp12
sS'hhints'
p13
((dp14
g10
I722
sg11
I96
s(dp15
g10
I1355
sg11
I94
stp16
ssS'com.typemytype.robofont.layerData'
p17
(dp18
sS'org.robofab.postScriptHintData'
p19
(dp20
s."
HStem: 722 96 1355 94
VStem: 1122 117
AnchorPoint: "top" 698 1456 basechar 0
AnchorPoint: "bot" 703 0 basechar 0
LayerCount: 2
Fore
SplineSet
314 1388 m 257
 442 1396 550 1400 641 1400 c 256
 1058 1400 1129 1313 1130 1108 c 256
 1130 897 1071 823 771 823 c 258
 314 823 l 257
 314 1388 l 257
222 0 m 257
 314 0 l 257
 314 755 l 257
 851 755 l 257
 1184 0 l 257
 1271 0 l 257
 1271 13 l 257
 946 763 l 257
 1125 798 1216 890 1216 1110 c 256
 1215 1364 1133 1467 609 1467 c 256
 500 1467 372 1462 222 1454 c 257
 222 0 l 257
EndSplineSet
EndChar

StartChar: S
Encoding: 51 83 93
Width: 1192
VWidth: 0
GlyphClass: 2
Flags: W
PickledData: "(dp1
S'org.pippin.gimp.org.kernagic'
p2
(dp3
S'lstem'
p4
I185
sS'rstem'
p5
I826
ssS'com.typemytype.robofont.guides'
p6
((dp7
S'y'
I973
sS'x'
I1035
sS'magnetic'
p8
I5
sS'angle'
p9
F90
sS'isGlobal'
p10
I00
s(dp11
S'y'
I382
sS'x'
I75
sg8
I5
sg9
F90
sg10
I00
stp12
sS'com.typemytype.robofont.layerData'
p13
(dp14
sS'org.robofab.postScriptHintData'
p15
(dp16
s."
AnchorPoint: "top" 615 1457 basechar 0
AnchorPoint: "bot" 619 0 basechar 0
LayerCount: 2
Fore
SplineSet
995 388 m 256
 995 141 847 50 599 50 c 256
 394 50 295 108 199 195 c 257
 192 195 l 257
 151 144 l 257
 191 103 312 -19 599 -19 c 256
 854 -19 1074 75 1074 391 c 256
 1074 629 905 691 725 764 c 257
 493 860 l 258
 304 938 248 970 248 1133 c 256
 248 1346 464 1411 642 1411 c 256
 813 1411 915 1333 965 1294 c 257
 974 1294 l 257
 1006 1345 l 257
 951 1398 812 1474 640 1474 c 256
 437 1474 164 1411 164 1118 c 256
 164 921 280 866 472 789 c 257
 705 693 l 257
 928 604 995 548 995 388 c 256
EndSplineSet
EndChar

StartChar: T
Encoding: 52 84 99
Width: 1123
VWidth: 0
GlyphClass: 2
Flags: W
PickledData: "(dp1
S'org.pippin.gimp.org.kernagic'
p2
(dp3
S'lstem'
p4
I285
sS'rstem'
p5
I844
ssS'com.typemytype.robofont.layerData'
p6
(dp7
sS'org.robofab.postScriptHintData'
p8
(dp9
s."
AnchorPoint: "top" 562 1455 basechar 0
AnchorPoint: "bot" 562 0 basechar 0
LayerCount: 2
Fore
SplineSet
53 1455 m 257
 53 1396 l 257
 512 1396 l 257
 512 0 l 257
 604 0 l 257
 604 1396 l 257
 1070 1396 l 257
 1070 1455 l 257
 53 1455 l 257
EndSplineSet
EndChar

StartChar: Thorn
Encoding: 157 222 103
Width: 1196
VWidth: 0
GlyphClass: 2
Flags: W
PickledData: "(dp1
S'org.pippin.gimp.org.kernagic'
p2
(dp3
S'lstem'
p4
I0
sS'rstem'
p5
I0
ssS'com.typemytype.robofont.layerData'
p6
(dp7
S'b'
(dp8
S'name'
p9
S'Thorn'
p10
sS'lib'
p11
(dp12
sS'unicodes'
p13
(tsS'width'
p14
I1192
sS'contours'
p15
(tsS'components'
p16
(tsS'anchors'
p17
(tsssS'org.robofab.postScriptHintData'
p18
(dp19
s."
LayerCount: 2
Fore
SplineSet
313 1080 m 257
 667 1080 l 258
 854 1080 995 1019 995 812 c 256
 995 567 890 498 677 498 c 258
 313 498 l 257
 313 1080 l 257
221 0 m 257
 313 0 l 257
 313 430 l 257
 664 430 l 258
 956 430 1088 555 1088 809 c 256
 1088 1046 913 1151 670 1151 c 258
 313 1151 l 257
 313 1456 l 257
 221 1456 l 257
 221 0 l 257
EndSplineSet
EndChar

StartChar: U
Encoding: 53 85 104
Width: 1453
VWidth: 0
GlyphClass: 2
Flags: W
PickledData: "(dp1
S'org.pippin.gimp.org.kernagic'
p2
(dp3
S'lstem'
p4
I0
sS'rstem'
p5
I0
ssS'com.typemytype.robofont.layerData'
p6
(dp7
sS'org.robofab.postScriptHintData'
p8
(dp9
s."
AnchorPoint: "top" 727 1455 basechar 0
AnchorPoint: "bot" 726 0 basechar 0
LayerCount: 2
Fore
SplineSet
1186 1455 m 257
 1186 534 l 258
 1186 222 1039 50 727 50 c 256
 397 50 267 223 267 535 c 258
 267 1455 l 257
 174 1455 l 257
 174 543 l 258
 174 224 325 -19 727 -19 c 256
 1125 -19 1279 234 1279 539 c 258
 1279 1455 l 257
 1186 1455 l 257
EndSplineSet
EndChar

StartChar: V
Encoding: 54 86 115
Width: 1341
VWidth: 0
GlyphClass: 2
Flags: W
PickledData: "(dp1
S'org.pippin.gimp.org.kernagic'
p2
(dp3
S'lstem'
p4
I0
sS'rstem'
p5
I0
ssS'com.typemytype.robofont.layerData'
p6
(dp7
sS'org.robofab.postScriptHintData'
p8
(dp9
s."
LayerCount: 2
Fore
SplineSet
656 0 m 257
 686 0 l 257
 1268 1455 l 257
 1179 1455 l 257
 1009 1018 846 575 669 146 c 257
 491 573 331 1018 163 1455 c 257
 74 1455 l 257
 656 0 l 257
EndSplineSet
EndChar

StartChar: W
Encoding: 55 87 116
Width: 2083
VWidth: 0
GlyphClass: 2
Flags: W
PickledData: "(dp1
S'org.pippin.gimp.org.kernagic'
p2
(dp3
S'lstem'
p4
I0
sS'rstem'
p5
I0
ssS'com.typemytype.robofont.layerData'
p6
(dp7
sS'org.robofab.postScriptHintData'
p8
(dp9
s."
AnchorPoint: "top" 1042 1455 basechar 0
AnchorPoint: "bot" 1042 0 basechar 0
LayerCount: 2
Fore
SplineSet
1046 1330 m 257
 1462 0 l 257
 1557 0 l 257
 2016 1454 l 257
 1929 1454 l 257
 1512 104 l 257
 1095 1406 l 257
 1069 1406 l 257
 1071 1412 l 257
 1020 1412 l 257
 1022 1406 l 257
 992 1406 l 257
 584 101 l 257
 149 1454 l 257
 67 1454 l 257
 539 0 l 257
 631 0 l 257
 1046 1330 l 257
EndSplineSet
EndChar

StartChar: X
Encoding: 56 88 121
Width: 1306
VWidth: 0
GlyphClass: 2
Flags: W
PickledData: "(dp1
S'org.pippin.gimp.org.kernagic'
p2
(dp3
S'lstem'
p4
I0
sS'rstem'
p5
I0
ssS'com.typemytype.robofont.layerData'
p6
(dp7
sS'org.robofab.postScriptHintData'
p8
(dp9
s."
LayerCount: 2
Fore
SplineSet
697 722 m 257
 1172 1455 l 257
 1081 1455 l 257
 656 785 l 257
 217 1455 l 257
 130 1455 l 257
 607 729 l 257
 114 0 l 257
 208 0 l 257
 650 664 l 257
 1086 0 l 257
 1169 0 l 257
 697 722 l 257
EndSplineSet
EndChar

StartChar: Y
Encoding: 57 89 122
Width: 1208
VWidth: 0
GlyphClass: 2
Flags: W
PickledData: "(dp1
S'org.pippin.gimp.org.kernagic'
p2
(dp3
S'lstem'
p4
I0
sS'rstem'
p5
I0
ssS'com.typemytype.robofont.layerData'
p6
(dp7
sS'org.robofab.postScriptHintData'
p8
(dp9
s."
AnchorPoint: "top" 604 1455 basechar 0
LayerCount: 2
Fore
SplineSet
669 615 m 257
 1142 1455 l 257
 1061 1455 l 257
 625 686 l 257
 144 1455 l 257
 66 1455 l 257
 583 613 l 257
 583 0 l 257
 669 0 l 257
 669 615 l 257
EndSplineSet
EndChar

StartChar: Z
Encoding: 58 90 127
Width: 1202
VWidth: 0
GlyphClass: 2
Flags: W
PickledData: "(dp1
S'org.pippin.gimp.org.kernagic'
p2
(dp3
S'lstem'
p4
I0
sS'rstem'
p5
I0
ssS'com.typemytype.robofont.layerData'
p6
(dp7
sS'org.robofab.postScriptHintData'
p8
(dp9
s."
AnchorPoint: "top" 662 1455 basechar 0
AnchorPoint: "bot" 643 0 basechar 0
LayerCount: 2
Fore
SplineSet
144 0 m 257
 1075 0 l 257
 1087 69 l 257
 220 69 l 257
 1081 1386 l 257
 1069 1455 l 257
 193 1455 l 257
 193 1384 l 257
 993 1384 l 257
 144 85 l 257
 144 0 l 257
EndSplineSet
EndChar

StartChar: a
Encoding: 65 97 131
Width: 1116
VWidth: 0
GlyphClass: 2
Flags: W
PickledData: "(dp1
S'org.pippin.gimp.org.kernagic'
p2
(dp3
S'lstem'
p4
I0
sS'rstem'
p5
I0
ssS'com.typemytype.robofont.guides'
p6
(tsS'com.fontlab.hintData'
p7
(dp8
S'vhints'
p9
((dp10
S'position'
p11
I126
sS'width'
p12
I120
s(dp13
g11
I842
sg12
I32
s(dp14
g11
I875
sg12
I86
stp15
sS'hhints'
p16
((dp17
g11
I-15
sg12
I92
s(dp18
g11
I535
sg12
I82
s(dp19
g11
I983
sg12
I92
stp20
ssS'com.typemytype.robofont.layerData'
p21
(dp22
sS'org.robofab.postScriptHintData'
p23
(dp24
s."
HStem: -15 92 535 82 983 92
VStem: 126 120 842 32 875 86
AnchorPoint: "top" 542 1082 basechar 0
AnchorPoint: "bot" 545 0 basechar 0
LayerCount: 2
Fore
SplineSet
840 607 m 257
 640 610 l 257
 621 610 l 258
 257 610 118 494 118 276 c 256
 118 95 251 -14 445 -14 c 256
 567 -14 716 7 850 180 c 257
 866 1 l 257
 936 1 l 257
 936 733 l 258
 936 1012 779 1102 542 1102 c 256
 420 1102 258 1060 181 1015 c 257
 218 944 l 257
 311 1000 436 1030 547 1030 c 256
 740 1030 840 932 840 752 c 258
 840 607 l 257
450 59 m 256
 325 59 217 127 217 277 c 256
 217 448 279 543 632 543 c 258
 649 543 l 257
 840 541 l 257
 840 262 l 257
 715 92 586 59 450 59 c 256
EndSplineSet
Substitution2: "Single Substitution lookup 3 subtable" ordfeminine
EndChar

StartChar: acute
Encoding: 115 180 135
Width: 679
VWidth: 0
GlyphClass: 4
Flags: W
PickledData: "(dp1
S'org.robofab.postScriptHintData'
p2
(dp3
sS'com.typemytype.robofont.layerData'
p4
(dp5
s."
AnchorPoint: "top" 233 1082 mark 0
LayerCount: 2
Fore
SplineSet
204 1260 m 257
 258 1260 l 257
 523 1611 l 257
 418 1611 l 257
 204 1260 l 257
EndSplineSet
EndChar

StartChar: ae
Encoding: 165 230 137
Width: 1806
VWidth: 0
GlyphClass: 2
Flags: W
PickledData: "(dp1
S'org.pippin.gimp.org.kernagic'
p2
(dp3
S'lstem'
p4
I0
sS'rstem'
p5
I0
ssS'com.fontlab.hintData'
p6
(dp7
S'vhints'
p8
((dp9
S'position'
p10
I126
sS'width'
p11
I119
s(dp12
g10
I817
sg11
I117
s(dp13
g10
I817
sg11
I82
s(dp14
g10
I1556
sg11
I98
stp15
sS'hhints'
p16
((dp17
g10
I-14
sg11
I98
s(dp18
g10
I518
sg11
I82
s(dp19
g10
I983
sg11
I92
stp20
ssS'com.typemytype.robofont.layerData'
p21
(dp22
sS'org.robofab.postScriptHintData'
p23
(dp24
s."
HStem: -14 98 518 82 983 92
VStem: 126 119 817 117 817 82 1556 98
AnchorPoint: "top" 926 1082 basechar 0
LayerCount: 2
Fore
SplineSet
1306 -19 m 256
 1455 -19 1559 18 1662 71 c 257
 1631 134 l 257
 1497 69 1425 56 1322 56 c 258
 1320 56 l 258
 1102 56 935 197 925 538 c 257
 946 538 l 258
 1488 538 1663 577 1663 816 c 256
 1663 962 1533 1101 1296 1101 c 256
 1126 1101 938 1000 906 799 c 257
 899 1021 743 1102 540 1102 c 256
 423 1102 276 1064 189 1017 c 257
 225 946 l 257
 329 1004 464 1030 571 1030 c 258
 574 1030 l 258
 763 1030 834 926 834 754 c 258
 834 606 l 257
 828 606 626 607 622 607 c 256
 264 607 129 497 129 293 c 256
 129 61 283 -13 451 -13 c 256
 621 -13 831 74 918 190 c 257
 997 56 1135 -19 1306 -19 c 256
466 71 m 256
 333 71 229 140 229 311 c 256
 229 466 311 541 652 541 c 258
 833 541 l 257
 833 458 844 347 878 264 c 257
 792 150 612 71 466 71 c 256
929 600 m 257
 951 823 1070 1024 1297 1024 c 256
 1489 1024 1581 908 1581 803 c 256
 1581 639 1391 600 946 600 c 258
 929 600 l 257
EndSplineSet
EndChar

StartChar: ampersand
Encoding: 6 38 142
Width: 1493
VWidth: 0
GlyphClass: 2
Flags: W
PickledData: "(dp1
S'org.pippin.gimp.org.kernagic'
p2
(dp3
S'lstem'
p4
I0
sS'rstem'
p5
I0
ssS'com.fontlab.hintData'
p6
(dp7
S'vhints'
p8
((dp9
S'position'
p10
I135
sS'width'
p11
I121
s(dp12
g10
I312
sg11
I105
s(dp13
g10
I917
sg11
I110
stp14
sS'hhints'
p15
((dp16
g10
I-19
sg11
I96
s(dp17
g10
I1372
sg11
I96
stp18
ssS'com.typemytype.robofont.layerData'
p19
(dp20
sS'org.robofab.postScriptHintData'
p21
(dp22
s."
HStem: -19 96 1372 96
VStem: 135 121 312 105 917 110
LayerCount: 2
Fore
SplineSet
1074 191 m 257
 967 104 842 47 713 47 c 256
 436 47 291 156 291 367 c 256
 291 515 385 647 566 753 c 257
 1074 191 l 257
1270 -26 m 257
 1323 21 l 257
 1173 186 l 257
 1263 272 1333 377 1377 485 c 257
 1324 524 l 257
 1279 420 1210 320 1126 238 c 257
 629 786 l 257
 850 879 1015 1005 1015 1167 c 256
 1015 1351 886 1474 696 1474 c 256
 470 1474 318 1355 318 1176 c 256
 318 1045 377 962 511 805 c 257
 308 682 202 529 202 359 c 256
 202 111 375 -19 699 -19 c 256
 857 -19 1003 43 1121 139 c 257
 1270 -26 l 257
582 833 m 257
 421 1008 389 1064 389 1179 c 256
 389 1318 511 1410 693 1410 c 256
 845 1410 944 1317 944 1178 c 256
 944 1020 762 914 582 833 c 257
EndSplineSet
EndChar

StartChar: uni02BC
Encoding: 65537 700 144
Width: 640
VWidth: 0
GlyphClass: 2
Flags: W
PickledData: "(dp1
S'org.robofab.postScriptHintData'
p2
(dp3
sS'com.typemytype.robofont.layerData'
p4
(dp5
s."
LayerCount: 2
Fore
SplineSet
248 1616 m 257
 172 1209 l 257
 225 1209 l 257
 225 1209 348 1614 349 1616 c 257
 248 1616 l 257
EndSplineSet
EndChar

StartChar: approxequal
Encoding: 477 8776 145
Width: 1297
VWidth: 0
GlyphClass: 2
Flags: W
PickledData: "(dp1
S'org.pippin.gimp.org.kernagic'
p2
(dp3
S'lstem'
p4
I0
sS'rstem'
p5
I0
ssS'com.typemytype.robofont.layerData'
p6
(dp7
S'b'
(dp8
S'name'
p9
S'approxequal'
p10
sS'lib'
p11
(dp12
sS'unicodes'
p13
(tsS'width'
p14
I1136
sS'contours'
p15
(tsS'components'
p16
(tsS'anchors'
p17
(tsssS'org.robofab.postScriptHintData'
p18
(dp19
s."
LayerCount: 2
Fore
SplineSet
949 889 m 256
 880 889 789 925 685 976 c 256
 571 1031 468 1071 382 1071 c 256
 277 1071 200 1015 169 866 c 257
 216 849 l 257
 239 979 304 1024 386 1024 c 256
 458 1024 543 990 629 949 c 256
 758 884 869 844 954 844 c 256
 1058 844 1121 902 1128 1046 c 257
 1083 1062 l 257
 1079 937 1029 889 949 889 c 256
949 520 m 256
 880 520 789 556 685 607 c 256
 571 662 468 702 382 702 c 256
 277 702 200 646 169 497 c 257
 216 480 l 257
 239 610 304 655 386 655 c 256
 458 655 543 621 629 580 c 256
 758 515 869 475 954 475 c 256
 1058 475 1121 533 1128 677 c 257
 1083 693 l 257
 1079 568 1029 520 949 520 c 256
EndSplineSet
EndChar

StartChar: asciicircum
Encoding: 62 94 148
Width: 1249
VWidth: 0
GlyphClass: 2
Flags: W
PickledData: "(dp1
S'org.pippin.gimp.org.kernagic'
p2
(dp3
S'lstem'
p4
I0
sS'rstem'
p5
I0
ssS'com.typemytype.robofont.layerData'
p6
(dp7
sS'org.robofab.postScriptHintData'
p8
(dp9
s."
LayerCount: 2
Fore
SplineSet
582 1456 m 257
 158 361 l 257
 224 361 l 257
 617 1386 l 257
 1021 361 l 257
 1091 361 l 257
 646 1456 l 257
 582 1456 l 257
EndSplineSet
EndChar

StartChar: asciitilde
Encoding: 94 126 149
Width: 1216
VWidth: 0
GlyphClass: 2
Flags: W
PickledData: "(dp1
S'org.pippin.gimp.org.kernagic'
p2
(dp3
S'lstem'
p4
I0
sS'rstem'
p5
I0
ssS'com.typemytype.robofont.layerData'
p6
(dp7
S'b'
(dp8
S'name'
p9
S'asciitilde'
p10
sS'lib'
p11
(dp12
sS'unicodes'
p13
(tsS'width'
p14
I1192
sS'contours'
p15
(tsS'components'
p16
(tsS'anchors'
p17
(tsssS'org.robofab.postScriptHintData'
p18
(dp19
s."
LayerCount: 2
Fore
SplineSet
104 516 m 257
 155 614 249 691 342 691 c 256
 414 691 503 649 631 593 c 256
 707 559 782 532 836 532 c 256
 948 532 997 597 1044 736 c 257
 1020 785 l 257
 1009 704 918 608 829 608 c 256
 764 608 673 658 570 701 c 256
 458 751 419 770 341 770 c 256
 225 770 136 688 93 575 c 257
 104 516 l 257
EndSplineSet
EndChar

StartChar: asterisk
Encoding: 10 42 150
Width: 1202
VWidth: 0
GlyphClass: 2
Flags: W
PickledData: "(dp1
S'org.pippin.gimp.org.kernagic'
p2
(dp3
S'lstem'
p4
I0
sS'rstem'
p5
I0
ssS'com.typemytype.robofont.layerData'
p6
(dp7
sS'org.robofab.postScriptHintData'
p8
(dp9
s."
LayerCount: 2
Fore
SplineSet
383 604 m 257
 594 1003 l 257
 819 605 l 257
 858 630 865 636 865 637 c 256
 865 638 862 637 862 638 c 256
 862 639 869 645 908 669 c 257
 746 882 682 974 643 1031 c 257
 1031 1121 l 257
 1001 1227 l 257
 622 1066 l 257
 663 1499 l 257
 539 1499 l 257
 577 1066 l 257
 200 1227 l 257
 173 1121 l 257
 552 1031 l 257
 298 669 l 257
 383 604 l 257
EndSplineSet
EndChar

StartChar: at
Encoding: 32 64 151
Width: 2133
VWidth: 0
GlyphClass: 2
Flags: W
PickledData: "(dp1
S'org.pippin.gimp.org.kernagic'
p2
(dp3
S'lstem'
p4
I0
sS'rstem'
p5
I0
ssS'com.typemytype.robofont.layerData'
p6
(dp7
sS'org.robofab.postScriptHintData'
p8
(dp9
s."
LayerCount: 2
Fore
SplineSet
1041 -254 m 256
 1247 -254 1429 -204 1569 -110 c 257
 1539 -50 l 257
 1396 -137 1224 -182 1046 -182 c 256
 627 -182 303 82 303 591 c 256
 303 1092 667 1436 1112 1436 c 256
 1521 1436 1823 1164 1823 746 c 256
 1823 501 1706 273 1526 273 c 256
 1404 273 1358 378 1358 489 c 256
 1358 623 1369 730 1422 1032 c 257
 1330 1061 1227 1091 1123 1091 c 256
 828 1091 663 858 663 559 c 256
 663 316 781 184 965 184 c 256
 1122 184 1234 306 1290 489 c 257
 1309 275 1429 211 1526 211 c 256
 1710 211 1905 388 1905 746 c 256
 1905 1220 1569 1511 1113 1511 c 256
 582 1511 209 1121 209 589 c 256
 209 57 531 -254 1041 -254 c 256
979 259 m 256
 853 259 764 347 763 563 c 256
 763 845 913 1024 1132 1024 c 256
 1170 1024 1261 1008 1322 994 c 257
 1267 681 l 258
 1230 467 1143 259 979 259 c 256
EndSplineSet
EndChar

StartChar: b
Encoding: 66 98 153
Width: 1239
VWidth: 0
GlyphClass: 2
Flags: W
PickledData: "(dp1
S'org.pippin.gimp.org.kernagic'
p2
(dp3
S'lstem'
p4
I0
sS'rstem'
p5
I0
ssS'com.typemytype.robofont.guides'
p6
(tsS'com.fontlab.hintData'
p7
(dp8
S'vhints'
p9
((dp10
S'position'
p11
I193
sS'width'
p12
I125
s(dp13
g11
I193
sg12
I94
s(dp14
g11
I1018
sg12
I122
stp15
sS'hhints'
p16
((dp17
g11
I-19
sg12
I92
s(dp18
g11
I982
sg12
I92
stp19
ssS'com.typemytype.robofont.layerData'
p20
(dp21
sS'org.robofab.postScriptHintData'
p22
(dp23
s."
HStem: -19 92 982 92
VStem: 193 125 193 94 1018 122
AnchorPoint: "top" 680 1082 basechar 0
LayerCount: 2
Fore
SplineSet
650 -20 m 256
 953 -20 1120 207 1120 533 c 256
 1120 887 960 1102 661 1102 c 256
 495 1102 359 1009 284 864 c 257
 284 1560 l 257
 187 1540 l 257
 187 0 l 257
 254 0 l 257
 264 185 l 257
 326 79 444 -20 650 -20 c 256
650 50 m 256
 438 50 334 167 282 294 c 257
 282 586 l 257
 280 850 442 1032 655 1032 c 256
 935 1032 1022 804 1022 536 c 256
 1022 267 915 50 650 50 c 256
EndSplineSet
EndChar

StartChar: backslash
Encoding: 60 92 154
Width: 979
VWidth: 0
GlyphClass: 2
Flags: W
PickledData: "(dp1
S'org.pippin.gimp.org.kernagic'
p2
(dp3
S'lstem'
p4
I0
sS'rstem'
p5
I0
ssS'com.typemytype.robofont.layerData'
p6
(dp7
S'b'
(dp8
S'name'
p9
S'backslash'
p10
sS'lib'
p11
(dp12
sS'unicodes'
p13
(tsS'width'
p14
I937
sS'contours'
p15
(tsS'components'
p16
(tsS'anchors'
p17
(tsssS'org.robofab.postScriptHintData'
p18
(dp19
s."
LayerCount: 2
Fore
SplineSet
736 -71 m 257
 795 -71 l 257
 197 1458 l 257
 140 1458 l 257
 736 -71 l 257
EndSplineSet
EndChar

StartChar: bar
Encoding: 92 124 155
Width: 187
VWidth: 0
GlyphClass: 2
Flags: W
PickledData: "(dp1
S'org.pippin.gimp.org.kernagic'
p2
(dp3
S'lstem'
p4
I0
sS'rstem'
p5
I0
ssS'com.typemytype.robofont.layerData'
p6
(dp7
S'b'
(dp8
S'name'
p9
S'bar'
p10
sS'lib'
p11
(dp12
sS'unicodes'
p13
(tsS'width'
p14
I681
sS'contours'
p15
(tsS'components'
p16
(tsS'anchors'
p17
(tsssS'org.robofab.postScriptHintData'
p18
(dp19
s."
LayerCount: 2
Fore
SplineSet
48 1563 m 257
 48 -432 l 257
 116 -432 l 257
 116 1563 l 257
 48 1563 l 257
EndSplineSet
EndChar

StartChar: braceleft
Encoding: 91 123 156
Width: 829
VWidth: 0
GlyphClass: 2
Flags: W
PickledData: "(dp1
S'org.pippin.gimp.org.kernagic'
p2
(dp3
S'lstem'
p4
I0
sS'rstem'
p5
I0
ssS'com.typemytype.robofont.layerData'
p6
(dp7
sS'org.robofab.postScriptHintData'
p8
(dp9
s."
LayerCount: 2
Fore
SplineSet
626 -285 m 257
 626 -229 l 257
 474 -227 425 -169 425 30 c 258
 425 316 l 258
 425 492 402 589 247 609 c 257
 402 629 425 726 425 902 c 258
 425 1188 l 258
 425 1387 481 1445 633 1447 c 257
 633 1503 l 257
 408 1503 341 1406 341 1190 c 258
 341 949 l 258
 341 757 334 636 127 632 c 257
 127 586 l 257
 334 582 341 461 341 269 c 258
 341 28 l 258
 341 -188 401 -285 626 -285 c 257
EndSplineSet
EndChar

StartChar: braceright
Encoding: 93 125 157
Width: 829
VWidth: 0
GlyphClass: 2
Flags: W
PickledData: "(dp1
S'org.pippin.gimp.org.kernagic'
p2
(dp3
S'lstem'
p4
I0
sS'rstem'
p5
I0
ssS'com.typemytype.robofont.layerData'
p6
(dp7
sS'org.robofab.postScriptHintData'
p8
(dp9
s."
LayerCount: 2
Fore
SplineSet
129 -285 m 257
 355 -285 414 -188 414 28 c 258
 414 269 l 258
 414 461 422 582 628 586 c 257
 628 632 l 257
 422 636 414 757 414 949 c 258
 414 1190 l 258
 414 1406 347 1503 122 1503 c 257
 122 1447 l 257
 274 1445 330 1387 330 1188 c 258
 330 902 l 258
 330 726 354 629 509 609 c 257
 354 589 330 492 330 316 c 258
 330 30 l 258
 330 -169 281 -227 129 -229 c 257
 129 -285 l 257
EndSplineSet
EndChar

StartChar: bracketleft
Encoding: 59 91 158
Width: 632
VWidth: 0
GlyphClass: 2
Flags: W
PickledData: "(dp1
S'org.pippin.gimp.org.kernagic'
p2
(dp3
S'lstem'
p4
I0
sS'rstem'
p5
I0
ssS'com.typemytype.robofont.layerData'
p6
(dp7
sS'org.robofab.postScriptHintData'
p8
(dp9
s."
LayerCount: 2
Fore
SplineSet
182 -225 m 257
 607 -225 l 257
 607 -158 l 257
 269 -158 l 257
 269 1489 l 257
 607 1489 l 257
 607 1558 l 257
 182 1558 l 257
 182 -225 l 257
EndSplineSet
EndChar

StartChar: bracketright
Encoding: 61 93 159
Width: 646
VWidth: 0
GlyphClass: 2
Flags: W
PickledData: "(dp1
S'org.pippin.gimp.org.kernagic'
p2
(dp3
S'lstem'
p4
I0
sS'rstem'
p5
I0
ssS'com.typemytype.robofont.layerData'
p6
(dp7
sS'org.robofab.postScriptHintData'
p8
(dp9
s."
LayerCount: 2
Fore
SplineSet
66 -225 m 257
 489 -225 l 257
 489 1558 l 257
 66 1558 l 257
 66 1489 l 257
 402 1489 l 257
 402 -157 l 257
 66 -157 l 257
 66 -225 l 257
EndSplineSet
EndChar

StartChar: breve
Encoding: 401 728 160
Width: 821
VWidth: 0
GlyphClass: 4
Flags: W
PickledData: "(dp1
S'org.robofab.postScriptHintData'
p2
(dp3
sS'com.typemytype.robofont.layerData'
p4
(dp5
s."
AnchorPoint: "top" 410 1082 mark 0
LayerCount: 2
Fore
SplineSet
403 1279 m 256
 506 1279 607 1336 607 1496 c 257
 555 1496 l 257
 555 1376 476 1332 403 1332 c 256
 332 1332 261 1376 261 1496 c 257
 206 1496 l 257
 206 1335 303 1279 403 1279 c 256
EndSplineSet
EndChar

StartChar: uni0311
Encoding: 409 785 161
Width: 733
VWidth: 0
GlyphClass: 4
Flags: W
PickledData: "(dp1
S'org.robofab.postScriptHintData'
p2
(dp3
sS'com.typemytype.robofont.layerData'
p4
(dp5
s."
AnchorPoint: "top" 386 1082 mark 0
LayerCount: 2
Fore
SplineSet
182 1279 m 257
 237 1279 l 257
 237 1399 308 1443 379 1443 c 256
 452 1443 531 1399 531 1279 c 257
 583 1279 l 257
 583 1439 482 1496 379 1496 c 256
 279 1496 182 1440 182 1279 c 257
EndSplineSet
EndChar

StartChar: brokenbar
Encoding: 101 166 162
Width: 105
VWidth: 0
GlyphClass: 2
Flags: W
PickledData: "(dp1
S'org.pippin.gimp.org.kernagic'
p2
(dp3
S'lstem'
p4
I0
sS'rstem'
p5
I0
ssS'com.typemytype.robofont.layerData'
p6
(dp7
S'b'
(dp8
S'name'
p9
S'brokenbar'
p10
sS'lib'
p11
(dp12
sS'unicodes'
p13
(tsS'width'
p14
I653
sS'contours'
p15
(tsS'components'
p16
(tsS'anchors'
p17
(tsssS'org.robofab.postScriptHintData'
p18
(dp19
s."
LayerCount: 2
Fore
SplineSet
10 541 m 257
 10 -129 l 257
 77 -129 l 257
 77 541 l 257
 10 541 l 257
10 1454 m 257
 10 787 l 257
 77 787 l 257
 77 1454 l 257
 10 1454 l 257
EndSplineSet
EndChar

StartChar: bullet
Encoding: 454 8226 163
Width: 811
VWidth: 0
GlyphClass: 2
Flags: W
PickledData: "(dp1
S'org.pippin.gimp.org.kernagic'
p2
(dp3
S'lstem'
p4
I0
sS'rstem'
p5
I0
ssS'com.typemytype.robofont.layerData'
p6
(dp7
S'b'
(dp8
S'name'
p9
S'bullet'
p10
sS'lib'
p11
(dp12
sS'unicodes'
p13
(tsS'width'
p14
I908
sS'contours'
p15
(tsS'components'
p16
(tsS'anchors'
p17
(tsssS'org.robofab.postScriptHintData'
p18
(dp19
s."
LayerCount: 2
Fore
SplineSet
394 464 m 256
 540 464 698 563 698 781 c 256
 698 999 546 1099 401 1099 c 256
 254 1099 100 998 100 778 c 256
 100 561 250 464 394 464 c 256
EndSplineSet
EndChar

StartChar: c
Encoding: 67 99 164
Width: 1086
VWidth: 0
GlyphClass: 2
Flags: W
PickledData: "(dp1
S'org.pippin.gimp.org.kernagic'
p2
(dp3
S'lstem'
p4
I0
sS'rstem'
p5
I696
ssS'com.typemytype.robofont.guides'
p6
((dp7
S'y'
I417
sS'x'
I962
sS'magnetic'
p8
I5
sS'angle'
p9
F90
sS'isGlobal'
p10
I00
s(dp11
S'y'
I1020
sS'x'
I565
sg8
I5
sg9
F90
sg10
I00
s(dp12
S'y'
I994
sS'x'
I572
sg8
I5
sg9
F90
sg10
I00
stp13
sS'com.fontlab.hintData'
p14
(dp15
S'vhints'
p16
((dp17
S'position'
p18
I128
sS'width'
p19
I120
stp20
sS'hhints'
p21
((dp22
g18
I-19
sg19
I92
s(dp23
g18
I982
sg19
I92
stp24
ssS'com.typemytype.robofont.layerData'
p25
(dp26
sS'org.robofab.postScriptHintData'
p27
(dp28
s."
HStem: -19 92 982 92
VStem: 128 120
AnchorPoint: "top" 612 1082 basechar 0
AnchorPoint: "bot" 610 0 basechar 0
LayerCount: 2
Fore
SplineSet
907 261 m 257
 869 131 741 49 593 49 c 256
 357 49 218 239 218 541 c 256
 218 843 357 1033 593 1033 c 256
 742 1033 870 951 907 820 c 257
 923 820 l 257
 978 843 l 257
 938 1002 784 1102 593 1102 c 256
 299 1102 120 886 120 541 c 256
 120 196 299 -20 593 -20 c 256
 784 -20 939 81 978 239 c 257
 926 261 l 257
 907 261 l 257
EndSplineSet
EndChar

StartChar: caron
Encoding: 399 711 166
Width: 848
VWidth: 0
GlyphClass: 4
Flags: W
PickledData: "(dp1
S'org.robofab.postScriptHintData'
p2
(dp3
sS'com.typemytype.robofont.layerData'
p4
(dp5
s."
AnchorPoint: "top" 423 1082 mark 0
LayerCount: 2
Fore
SplineSet
463 1253 m 257
 645 1557 l 257
 585 1557 l 257
 413 1310 l 257
 241 1557 l 257
 179 1557 l 257
 363 1253 l 257
 463 1253 l 257
EndSplineSet
EndChar

StartChar: caron.alt
Encoding: 65538 -1 167
Width: 837
VWidth: 0
GlyphClass: 4
Flags: W
PickledData: "(dp1
S'org.robofab.postScriptHintData'
p2
(dp3
sS'com.typemytype.robofont.layerData'
p4
(dp5
s."
AnchorPoint: "caron.alt" 380 1082 mark 0
LayerCount: 2
Fore
SplineSet
564 1194 m 257
 641 1194 l 257
 732 1528 l 257
 624 1528 l 257
 564 1194 l 257
EndSplineSet
EndChar

StartChar: cedilla
Encoding: 119 184 172
Width: 624
VWidth: 0
GlyphClass: 4
Flags: W
PickledData: "(dp1
S'org.robofab.postScriptHintData'
p2
(dp3
sS'com.typemytype.robofont.layerData'
p4
(dp5
s."
AnchorPoint: "bot" 307 0 mark 0
LayerCount: 2
Fore
SplineSet
460 -199 m 256
 460 -297 371 -339 282 -339 c 256
 234 -339 186 -327 148 -305 c 257
 127 -356 l 257
 170 -376 220 -387 275 -387 c 256
 420 -387 523 -312 523 -199 c 256
 523 -92 442 -43 351 -43 c 256
 320 -43 288 -49 258 -60 c 257
 259 -94 l 257
 287 -88 311 -86 332 -86 c 256
 439 -86 460 -152 460 -199 c 256
EndSplineSet
EndChar

StartChar: cent
Encoding: 97 162 173
Width: 1019
VWidth: 0
GlyphClass: 2
Flags: W
PickledData: "(dp1
S'org.pippin.gimp.org.kernagic'
p2
(dp3
S'lstem'
p4
I0
sS'rstem'
p5
I0
ssS'com.typemytype.robofont.layerData'
p6
(dp7
sS'org.robofab.postScriptHintData'
p8
(dp9
s."
LayerCount: 2
Fore
SplineSet
546 1372 m 257
 545 1063 l 257
 627 1063 l 257
 627 1372 l 257
 546 1372 l 257
545 16 m 257
 545 -288 l 257
 626 -288 l 257
 628 16 l 257
 545 16 l 257
EndSplineSet
Refer: 164 99 N 1 0 0 1 0 0 2
EndChar

StartChar: circumflex
Encoding: 398 710 174
Width: 847
VWidth: 0
GlyphClass: 4
Flags: W
PickledData: "(dp1
S'org.robofab.postScriptHintData'
p2
(dp3
sS'com.typemytype.robofont.layerData'
p4
(dp5
s."
AnchorPoint: "top" 423 1082 mark 0
LayerCount: 2
Fore
SplineSet
179 1253 m 257
 241 1253 l 257
 413 1500 l 257
 585 1253 l 257
 645 1253 l 257
 463 1557 l 257
 363 1557 l 257
 179 1253 l 257
EndSplineSet
EndChar

StartChar: colon
Encoding: 26 58 175
Width: 478
VWidth: 0
GlyphClass: 2
Flags: W
PickledData: "(dp1
S'org.pippin.gimp.org.kernagic'
p2
(dp3
S'lstem'
p4
I0
sS'rstem'
p5
I0
ssS'com.typemytype.robofont.layerData'
p6
(dp7
S'b'
(dp8
S'name'
p9
S'colon'
p10
sS'lib'
p11
(dp12
sS'unicodes'
p13
(tsS'width'
p14
I653
sS'contours'
p15
(tsS'components'
p16
(tsS'anchors'
p17
(tsssS'org.robofab.postScriptHintData'
p18
(dp19
s."
LayerCount: 2
Fore
SplineSet
226 896 m 256
 291 896 304 940 304 975 c 256
 304 1008 291 1053 226 1053 c 256
 158 1053 146 1008 146 975 c 256
 146 941 160 896 226 896 c 256
226 -20 m 256
 291 -20 304 25 304 59 c 256
 304 93 291 138 226 138 c 256
 158 138 146 93 146 59 c 256
 146 26 160 -20 226 -20 c 256
EndSplineSet
EndChar

StartChar: comma
Encoding: 12 44 176
Width: 461
VWidth: 0
GlyphClass: 2
Flags: W
PickledData: "(dp1
S'org.pippin.gimp.org.kernagic'
p2
(dp3
S'lstem'
p4
I0
sS'rstem'
p5
I0
ssS'com.typemytype.robofont.layerData'
p6
(dp7
sS'org.robofab.postScriptHintData'
p8
(dp9
s."
LayerCount: 2
Fore
SplineSet
158 -293 m 257
 197 -293 l 257
 197 -293 277 119 277 168 c 258
 277 196 l 257
 164 196 l 257
 164 74 158 -293 158 -293 c 257
EndSplineSet
EndChar

StartChar: uni0326
Encoding: 411 806 177
Width: 601
VWidth: 0
GlyphClass: 4
Flags: W
PickledData: "(dp1
S'org.robofab.postScriptHintData'
p2
(dp3
s."
AnchorPoint: "bot" 314 0 mark 0
LayerCount: 2
Fore
SplineSet
251 -497 m 257
 291 -497 l 257
 291 -497 352 -251 352 -169 c 258
 352 -163 l 257
 266 -163 l 257
 266 -287 251 -497 251 -497 c 257
EndSplineSet
EndChar

StartChar: uni0312
Encoding: 410 786 178
Width: 600
VWidth: 0
GlyphClass: 4
Flags: W
PickledData: "(dp1
S'org.robofab.postScriptHintData'
p2
(dp3
s."
AnchorPoint: "top" 303 1082 mark 0
LayerCount: 2
Fore
SplineSet
240 1317 m 257
 241 1290 l 257
 354 1290 l 257
 354 1414 359 1778 359 1778 c 257
 319 1778 l 257
 319 1778 240 1366 240 1317 c 257
EndSplineSet
EndChar

StartChar: copyright
Encoding: 104 169 179
Width: 1953
VWidth: 0
GlyphClass: 2
Flags: W
PickledData: "(dp1
S'org.pippin.gimp.org.kernagic'
p2
(dp3
S'lstem'
p4
I0
sS'rstem'
p5
I0
ssS'com.typemytype.robofont.layerData'
p6
(dp7
sS'org.robofab.postScriptHintData'
p8
(dp9
s."
LayerCount: 2
Fore
SplineSet
1009 225 m 256
 1101 225 1200 253 1297 315 c 257
 1273 382 l 257
 1172 321 1094 303 1005 303 c 256
 782 303 590 476 590 772 c 256
 590 1029 783 1217 996 1217 c 256
 1072 1217 1177 1188 1256 1119 c 257
 1293 1193 l 257
 1193 1263 1090 1295 994 1295 c 256
 729 1295 486 1071 486 762 c 256
 486 448 735 225 1009 225 c 256
968 14 m 256
 628 14 248 234 248 762 c 256
 248 1291 629 1513 968 1513 c 256
 1305 1513 1691 1290 1691 762 c 256
 1691 235 1305 14 968 14 c 256
967 -47 m 256
 1351 -47 1776 193 1776 762 c 256
 1776 1331 1351 1574 968 1574 c 256
 583 1574 163 1330 163 762 c 256
 163 193 583 -47 967 -47 c 256
EndSplineSet
EndChar

StartChar: currency
Encoding: 99 164 180
Width: 1446
VWidth: 0
GlyphClass: 2
Flags: W
PickledData: "(dp1
S'org.pippin.gimp.org.kernagic'
p2
(dp3
S'lstem'
p4
I0
sS'rstem'
p5
I0
ssS'com.typemytype.robofont.layerData'
p6
(dp7
S'b'
(dp8
S'name'
p9
S'currency'
p10
sS'lib'
p11
(dp12
sS'unicodes'
p13
(tsS'width'
p14
I1164
sS'contours'
p15
(tsS'components'
p16
(tsS'anchors'
p17
(tsssS'org.robofab.postScriptHintData'
p18
(dp19
s."
LayerCount: 2
Fore
SplineSet
985 1007 m 257
 911 1073 814 1110 708 1110 c 256
 603 1110 507 1077 430 1008 c 257
 245 1182 l 257
 206 1145 l 257
 394 966 l 257
 333 893 304 801 304 705 c 256
 304 609 332 523 394 447 c 257
 207 270 l 257
 245 229 l 257
 432 405 l 257
 507 338 602 304 708 304 c 256
 816 304 909 337 985 403 c 257
 1171 228 l 257
 1205 268 l 257
 1023 447 l 257
 1082 518 1111 606 1111 705 c 256
 1111 796 1084 885 1022 966 c 257
 1206 1141 l 257
 1171 1182 l 257
 985 1007 l 257
1051 705 m 256
 1051 517 931 350 708 350 c 256
 488 350 365 516 365 705 c 256
 365 896 488 1062 708 1062 c 256
 930 1062 1051 894 1051 705 c 256
EndSplineSet
EndChar

StartChar: d
Encoding: 68 100 181
Width: 1237
VWidth: 0
GlyphClass: 2
Flags: W
PickledData: "(dp1
S'org.pippin.gimp.org.kernagic'
p2
(dp3
S'lstem'
p4
I0
sS'rstem'
p5
I0
ssS'com.fontlab.hintData'
p6
(dp7
S'vhints'
p8
((dp9
S'position'
p10
I114
sS'width'
p11
I166
s(dp12
g10
I907
sg11
I161
s(dp13
g10
I930
sg11
I138
stp14
sS'hhints'
p15
((dp16
g10
I-19
sg11
I127
s(dp17
g10
I953
sg11
I127
stp18
ssS'com.typemytype.robofont.layerData'
p19
(dp20
sS'org.robofab.postScriptHintData'
p21
(dp22
s."
HStem: -19 127 953 127
VStem: 114 166 907 161 930 138
AnchorPoint: "top" 596 1082 basechar 0
AnchorPoint: "caron.alt" 1025 1092 basechar 0
LayerCount: 2
Fore
SplineSet
951 1540 m 257
 951 1180 l 257
 959 904 l 257
 900 1028 771 1102 597 1102 c 256
 303 1102 120 888 120 548 c 256
 120 199 298 -20 585 -20 c 256
 753 -20 893 53 963 176 c 257
 972 0 l 257
 1049 0 l 257
 1049 1560 l 257
 951 1540 l 257
585 50 m 256
 358 50 218 242 218 547 c 256
 218 845 364 1032 598 1032 c 256
 756 1032 887 950 952 780 c 257
 952 278 l 257
 897 138 757 50 585 50 c 256
EndSplineSet
EndChar

StartChar: dagger
Encoding: 452 8224 182
Width: 958
VWidth: 0
GlyphClass: 2
Flags: W
PickledData: "(dp1
S'org.pippin.gimp.org.kernagic'
p2
(dp3
S'lstem'
p4
I0
sS'rstem'
p5
I0
ssS'com.typemytype.robofont.layerData'
p6
(dp7
S'b'
(dp8
S'name'
p9
S'dagger'
p10
sS'lib'
p11
(dp12
sS'unicodes'
p13
(tsS'width'
p14
I1050
sS'contours'
p15
(tsS'components'
p16
(tsS'anchors'
p17
(tsssS'org.robofab.postScriptHintData'
p18
(dp19
s."
LayerCount: 2
Fore
SplineSet
437 1454 m 257
 437 1047 l 257
 155 1047 l 257
 155 1011 l 257
 437 1011 l 257
 437 126 l 257
 491 126 l 257
 491 1011 l 257
 763 1011 l 257
 763 1047 l 257
 482 1047 l 257
 482 1454 l 257
 437 1454 l 257
EndSplineSet
EndChar

StartChar: daggerdbl
Encoding: 453 8225 183
Width: 1055
VWidth: 0
GlyphClass: 2
Flags: W
PickledData: "(dp1
S'org.pippin.gimp.org.kernagic'
p2
(dp3
S'lstem'
p4
I0
sS'rstem'
p5
I0
ssS'com.typemytype.robofont.layerData'
p6
(dp7
S'b'
(dp8
S'name'
p9
S'daggerdbl'
p10
sS'lib'
p11
(dp12
sS'unicodes'
p13
(tsS'width'
p14
I1022
sS'contours'
p15
(tsS'components'
p16
(tsS'anchors'
p17
(tsssS'org.robofab.postScriptHintData'
p18
(dp19
s."
LayerCount: 2
Fore
SplineSet
434 1455 m 257
 434 1049 l 257
 145 1049 l 257
 145 1012 l 257
 434 1012 l 257
 434 545 l 257
 145 545 l 257
 145 507 l 257
 434 507 l 257
 434 150 l 257
 486 150 l 257
 486 507 l 257
 769 507 l 257
 769 545 l 257
 486 545 l 257
 486 1012 l 257
 769 1012 l 257
 769 1049 l 257
 479 1049 l 257
 479 1455 l 257
 434 1455 l 257
EndSplineSet
EndChar

StartChar: uni030F
Encoding: 408 783 184
Width: 708
VWidth: 0
GlyphClass: 4
Flags: W
PickledData: "(dp1
S'org.robofab.postScriptHintData'
p2
(dp3
sS'com.typemytype.robofont.layerData'
p4
(dp5
s."
AnchorPoint: "top" 554 1082 mark 0
LayerCount: 2
Fore
SplineSet
124 1611 m 257
 389 1260 l 257
 443 1260 l 257
 229 1611 l 257
 124 1611 l 257
344 1611 m 257
 609 1260 l 257
 663 1260 l 257
 449 1611 l 257
 344 1611 l 257
EndSplineSet
EndChar

StartChar: degree
Encoding: 111 176 187
Width: 854
VWidth: 0
GlyphClass: 2
Flags: W
PickledData: "(dp1
S'org.pippin.gimp.org.kernagic'
p2
(dp3
S'lstem'
p4
I0
sS'rstem'
p5
I0
ssS'com.typemytype.robofont.layerData'
p6
(dp7
sS'org.robofab.postScriptHintData'
p8
(dp9
s."
LayerCount: 2
Fore
SplineSet
426 989 m 256
 298 989 203 1083 203 1211 c 256
 203 1340 301 1435 425 1435 c 256
 555 1435 652 1340 652 1211 c 256
 652 1086 555 989 426 989 c 256
424 926 m 256
 567 926 724 1037 724 1211 c 256
 724 1390 565 1497 424 1497 c 256
 291 1497 130 1390 130 1211 c 256
 130 1027 293 926 424 926 c 256
EndSplineSet
EndChar

StartChar: dieresis
Encoding: 103 168 188
Width: 794
VWidth: 0
GlyphClass: 4
Flags: W
PickledData: "(dp1
S'org.robofab.postScriptHintData'
p2
(dp3
sS'com.typemytype.robofont.layerData'
p4
(dp5
s."
AnchorPoint: "top" 397 1082 mark 0
LayerCount: 2
Fore
SplineSet
202 1350 m 256
 255 1350 265 1386 265 1414 c 256
 265 1440 255 1477 202 1477 c 256
 146 1477 138 1440 138 1414 c 256
 138 1386 149 1350 202 1350 c 256
566 1350 m 256
 618 1350 629 1385 629 1414 c 256
 629 1440 618 1477 566 1477 c 256
 510 1477 502 1440 502 1414 c 256
 502 1386 512 1350 566 1350 c 256
EndSplineSet
EndChar

StartChar: divide
Encoding: 182 247 189
Width: 1032
VWidth: 0
GlyphClass: 2
Flags: W
PickledData: "(dp1
S'org.pippin.gimp.org.kernagic'
p2
(dp3
S'lstem'
p4
I0
sS'rstem'
p5
I0
ssS'com.typemytype.robofont.layerData'
p6
(dp7
sS'org.robofab.postScriptHintData'
p8
(dp9
s."
LayerCount: 2
Fore
SplineSet
57 609 m 257
 57 515 l 257
 950 515 l 257
 950 609 l 257
 57 609 l 257
437 191 m 257
 437 41 l 257
 572 41 l 257
 572 191 l 257
 437 191 l 257
437 1047 m 257
 437 896 l 257
 572 896 l 257
 572 1047 l 257
 437 1047 l 257
EndSplineSet
EndChar

StartChar: dollar
Encoding: 4 36 190
Width: 1192
VWidth: 0
GlyphClass: 2
Flags: W
PickledData: "(dp1
S'org.pippin.gimp.org.kernagic'
p2
(dp3
S'lstem'
p4
I0
sS'rstem'
p5
I0
ssS'com.typemytype.robofont.layerData'
p6
(dp7
S'b'
(dp8
S'name'
p9
S'dollar'
p10
sS'lib'
p11
(dp12
sS'unicodes'
p13
(tsS'width'
p14
I1221
sS'contours'
p15
(tsS'components'
p16
(tsS'anchors'
p17
(tsssS'org.robofab.postScriptHintData'
p18
(dp19
s."
LayerCount: 2
Fore
SplineSet
597 1710 m 257
 595 1444 l 257
 662 1444 l 257
 662 1710 l 257
 597 1710 l 257
586 9 m 257
 586 -334 l 257
 651 -334 l 257
 652 9 l 257
 586 9 l 257
EndSplineSet
Refer: 93 83 N 1 0 0 1 0 0 2
EndChar

StartChar: dotaccent
Encoding: 402 729 191
Width: 299
VWidth: 0
GlyphClass: 4
Flags: W
PickledData: "(dp1
S'org.robofab.postScriptHintData'
p2
(dp3
sS'com.typemytype.robofont.layerData'
p4
(dp5
s."
AnchorPoint: "top" 145 1082 mark 0
LayerCount: 2
Fore
SplineSet
219 1406 m 256
 219 1453 196 1478 146 1478 c 256
 94 1478 72 1453 72 1406 c 256
 72 1358 94 1333 146 1333 c 256
 196 1333 219 1358 219 1406 c 256
EndSplineSet
EndChar

StartChar: dotlessi
Encoding: 240 305 192
Width: 467
VWidth: 0
GlyphClass: 2
Flags: W
PickledData: "(dp1
S'org.pippin.gimp.org.kernagic'
p2
(dp3
S'lstem'
p4
I0
sS'rstem'
p5
I0
ssS'com.typemytype.robofont.layerData'
p6
(dp7
sS'org.robofab.postScriptHintData'
p8
(dp9
s."
AnchorPoint: "top" 241 1082 basechar 0
LayerCount: 2
Fore
SplineSet
189 1082 m 257
 189 0 l 257
 286 0 l 257
 286 1082 l 257
 189 1082 l 257
EndSplineSet
EndChar

StartChar: e
Encoding: 69 101 193
Width: 1122
VWidth: 0
GlyphClass: 2
Flags: HW
PickledData: "(dp1
S'org.pippin.gimp.org.kernagic'
p2
(dp3
S'lstem'
p4
I0
sS'rstem'
p5
I747
ssS'com.fontlab.hintData'
p6
(dp7
S'hhints'
p8
((dp9
S'position'
p10
I-19
sS'width'
p11
I94
s(dp12
g10
I982
sg11
I92
stp13
ssS'com.typemytype.robofont.layerData'
p14
(dp15
sS'org.robofab.postScriptHintData'
p16
(dp17
s."
HStem: -19 94 982 92
AnchorPoint: "top" 583 1082 basechar 0
AnchorPoint: "bot" 607 0 basechar 0
LayerCount: 2
Fore
SplineSet
610 -20 m 256
 762 -20 874 19 974 73 c 257
 941 138 l 257
 930 138 l 257
 830 83 730 54 622 54 c 256
 405 54 225 205 216 546 c 257
 992 546 l 257
 992 546 997 579 997 612 c 256
 997 918 856 1102 606 1102 c 256
 352.415395351 1102 124 903.277288568 124 537 c 256
 124 203 325 -20 610 -20 c 256
221 608 m 257
 244 854 385 1030 614 1030 c 256
 825 1030 914 884 921 608 c 257
 221 608 l 257
EndSplineSet
EndChar

StartChar: eight
Encoding: 24 56 201
Width: 1200
VWidth: 0
GlyphClass: 2
Flags: W
PickledData: "(dp1
S'org.pippin.gimp.org.kernagic'
p2
(dp3
S'lstem'
p4
I0
sS'rstem'
p5
I0
ssS'com.typemytype.robofont.layerData'
p6
(dp7
sS'org.robofab.postScriptHintData'
p8
(dp9
s."
LayerCount: 2
Fore
SplineSet
599 -20 m 256
 856 -20 1051 98 1051 347 c 256
 1051 543 920 703 700 755 c 257
 892 809 1015 931 1015 1123 c 256
 1015 1338 859 1476 601 1476 c 256
 340 1476 182 1338 182 1123 c 256
 182 934 317 796 497 752 c 257
 268 686 149 566 149 346 c 256
 149 97 347 -20 599 -20 c 256
599 56 m 256
 354 56 227 159 227 359 c 256
 227 558 390 665 599 706 c 257
 811 665 968 547 968 359 c 256
 968 147 854 56 599 56 c 256
599 792 m 257
 385 838 278 957 278 1130 c 256
 278 1296 406 1397 599 1397 c 256
 795 1397 918 1296 918 1130 c 256
 918 957 817 838 599 792 c 257
EndSplineSet
EndChar

StartChar: emdash
Encoding: 445 8212 204
Width: 2323
VWidth: 0
GlyphClass: 2
Flags: W
PickledData: "(dp1
S'org.robofab.postScriptHintData'
p2
(dp3
sS'com.typemytype.robofont.layerData'
p4
(dp5
s."
LayerCount: 2
Fore
SplineSet
60 578 m 257
 2263 578 l 257
 2263 644 l 257
 60 644 l 257
 60 578 l 257
EndSplineSet
EndChar

StartChar: endash
Encoding: 444 8211 205
Width: 1326
VWidth: 0
GlyphClass: 2
Flags: W
PickledData: "(dp1
S'org.pippin.gimp.org.kernagic'
p2
(dp3
S'lstem'
p4
I0
sS'rstem'
p5
I0
ssS'com.typemytype.robofont.layerData'
p6
(dp7
sS'org.robofab.postScriptHintData'
p8
(dp9
s."
LayerCount: 2
Fore
SplineSet
165 578 m 257
 1161 578 l 257
 1161 670 l 257
 165 670 l 257
 165 578 l 257
EndSplineSet
EndChar

StartChar: eng
Encoding: 266 331 206
Width: 1169
VWidth: 0
GlyphClass: 2
Flags: W
PickledData: "(dp1
S'org.robofab.postScriptHintData'
p2
(dp3
sS'com.typemytype.robofont.layerData'
p4
(dp5
s."
LayerCount: 2
Fore
SplineSet
892 286 m 257
 892 2 l 258
 892 -248 850 -327 516 -327 c 257
 528 -394 l 257
 944 -394 990 -254 990 -20 c 258
 990 286 l 257
 892 286 l 257
EndSplineSet
Refer: 274 110 N 1 0 0 1 0 0 2
EndChar

StartChar: equal
Encoding: 29 61 208
Width: 1060
VWidth: 0
GlyphClass: 2
Flags: W
PickledData: "(dp1
S'org.pippin.gimp.org.kernagic'
p2
(dp3
S'lstem'
p4
I0
sS'rstem'
p5
I0
ssS'com.typemytype.robofont.layerData'
p6
(dp7
S'b'
(dp8
S'name'
p9
S'equal'
p10
sS'lib'
p11
(dp12
sS'unicodes'
p13
(tsS'width'
p14
I1050
sS'contours'
p15
(tsS'components'
p16
(tsS'anchors'
p17
(tsssS'org.robofab.postScriptHintData'
p18
(dp19
s."
LayerCount: 2
Fore
SplineSet
132 939 m 257
 132 867 l 257
 929 867 l 257
 929 939 l 257
 132 939 l 257
132 556 m 257
 132 484 l 257
 929 484 l 257
 929 556 l 257
 132 556 l 257
EndSplineSet
EndChar

StartChar: estimated
Encoding: 465 8494 209
Width: 647
VWidth: 0
GlyphClass: 2
Flags: W
PickledData: "(dp1
S'org.robofab.postScriptHintData'
p2
(dp3
sS'com.typemytype.robofont.layerData'
p4
(dp5
S'b'
(dp6
S'name'
p7
S'estimated'
p8
sS'lib'
p9
(dp10
sS'unicodes'
p11
(tsS'width'
p12
I1223
sS'contours'
p13
(tsS'components'
p14
(tsS'anchors'
p15
(tsss."
LayerCount: 2
Fore
SplineSet
99 405 m 256
 99 163 244 -18 537 -18 c 256
 696 -18 800 50 877 139 c 257
 837 178 l 257
 762 98 676 37 537 37 c 256
 361 37 268 182 267 390 c 257
 883 390 l 257
 883 653 769 827 524 827 c 256
 276 827 99 647 99 405 c 256
797 451 m 257
 269 451 l 257
 280 649 396 782 528 782 c 256
 689 782 797 628 797 451 c 257
EndSplineSet
EndChar

StartChar: eth
Encoding: 175 240 210
Width: 1355
VWidth: 0
GlyphClass: 2
Flags: W
PickledData: "(dp1
S'org.pippin.gimp.org.kernagic'
p2
(dp3
S'lstem'
p4
I0
sS'rstem'
p5
I0
ssS'com.typemytype.robofont.layerData'
p6
(dp7
sS'org.robofab.postScriptHintData'
p8
(dp9
s."
LayerCount: 2
Fore
SplineSet
312 1628 m 257
 542 1423 l 257
 281 1323 l 257
 317 1265 l 257
 586 1367 l 257
 867 1094 977 913 1030 773 c 257
 981 832 880 975 661 975 c 256
 382 975 174 776 174 484 c 256
 174 234 319 -31 657 -31 c 256
 1004 -31 1143 220 1143 495 c 256
 1143 626 1114 774 1068 870 c 256
 1009 998 912 1138 662 1398 c 257
 954 1503 l 257
 916 1560 l 257
 608 1444 l 257
 420 1628 l 257
 312 1628 l 257
1052 500 m 256
 1052 221 924 35 662 35 c 256
 394 35 276 269 276 481 c 256
 276 713 418 900 656 900 c 256
 914 900 1052 691 1052 500 c 256
EndSplineSet
EndChar

StartChar: exclam
Encoding: 1 33 211
Width: 532
VWidth: 0
GlyphClass: 2
Flags: W
PickledData: "(dp1
S'org.pippin.gimp.org.kernagic'
p2
(dp3
S'lstem'
p4
I0
sS'rstem'
p5
I0
ssS'com.typemytype.robofont.layerData'
p6
(dp7
sS'org.robofab.postScriptHintData'
p8
(dp9
s."
LayerCount: 2
Fore
SplineSet
245 404 m 257
 277 404 l 257
 324 1424 l 257
 324 1480 l 257
 194 1480 l 257
 194 1424 l 257
 245 404 l 257
267 -17 m 256
 343 -17 358 30 358 71 c 256
 358 109 343 158 267 158 c 256
 193 158 178 109 178 71 c 256
 178 33 193 -17 267 -17 c 256
EndSplineSet
EndChar

StartChar: f
Encoding: 70 102 213
Width: 730
VWidth: 0
GlyphClass: 2
Flags: W
PickledData: "(dp1
S'org.pippin.gimp.org.kernagic'
p2
(dp3
S'lstem'
p4
I182
sS'rstem'
p5
I417
ssS'com.fontlab.hintData'
p6
(dp7
S'vhints'
p8
((dp9
S'position'
p10
I269
sS'width'
p11
I166
stp12
sS'hhints'
p13
((dp14
g10
I952
sg11
I89
s(dp15
g10
I1358
sg11
I122
stp16
ssS'com.typemytype.robofont.layerData'
p17
(dp18
sS'org.robofab.postScriptHintData'
p19
(dp20
s."
HStem: 952 89 1358 122
VStem: 269 166
AnchorPoint: "top" 435 1455 basechar 0
LayerCount: 2
Fore
SplineSet
393 1082 m 257
 393 1173 l 258
 393 1419 460 1447 574 1447 c 256
 621 1447 685 1438 685 1438 c 257
 689 1498 l 257
 679 1500 625 1512 555 1512 c 256
 382 1512 295 1415 295 1171 c 258
 295 1081 l 257
 81 1065 l 257
 76 1031 l 257
 295 1031 l 257
 295 0 l 257
 393 0 l 257
 393 1031 l 257
 647 1031 l 257
 647 1082 l 257
 393 1082 l 257
EndSplineSet
EndChar

StartChar: five
Encoding: 21 53 214
Width: 1200
VWidth: 0
GlyphClass: 2
Flags: W
PickledData: "(dp1
S'org.pippin.gimp.org.kernagic'
p2
(dp3
S'lstem'
p4
I0
sS'rstem'
p5
I0
ssS'com.typemytype.robofont.layerData'
p6
(dp7
sS'org.robofab.postScriptHintData'
p8
(dp9
s."
LayerCount: 2
Fore
SplineSet
196 153 m 257
 163 90 l 257
 299 3 429 -20 552 -20 c 256
 820 -20 1065 134 1065 466 c 256
 1065 693 922 900 609 900 c 256
 489 900 409 872 310 810 c 257
 352 1383 l 257
 986 1383 l 257
 995 1456 l 257
 281 1456 l 257
 229 718 l 257
 325 712 l 257
 386 778 503 825 621 825 c 256
 884 824 968 647 968 459 c 256
 968 188 769 55 544 55 c 256
 441 55 330 77 207 153 c 257
 196 153 l 257
EndSplineSet
EndChar

StartChar: florin
Encoding: 318 402 216
Width: 913
VWidth: 0
GlyphClass: 2
Flags: W
PickledData: "(dp1
S'org.robofab.postScriptHintData'
p2
(dp3
s."
LayerCount: 2
Fore
SplineSet
474 1164 m 258
 409 819 l 257
 247 819 l 257
 237 762 l 257
 401 762 l 257
 274 152 l 257
 244 2 237 -142 60 -142 c 256
 34 -142 4 -139 -31 -132 c 257
 -42 -180 l 257
 8 -192 51 -198 90 -198 c 256
 241 -198 316 -101 366 151 c 257
 492 762 l 257
 747 762 l 257
 756 819 l 257
 505 819 l 257
 566 1156 l 258
 596 1319 649 1391 748 1391 c 256
 834 1391 884 1343 884 1225 c 257
 951 1225 l 257
 951 1398 860 1458 747 1458 c 256
 595 1458 513 1369 474 1164 c 258
EndSplineSet
EndChar

StartChar: foundryicon
Encoding: 488 -1 217
Width: 1347
VWidth: 0
GlyphClass: 2
Flags: W
PickledData: "(dp1
S'org.robofab.postScriptHintData'
p2
(dp3
s."
LayerCount: 2
Fore
SplineSet
485 405 m 257
 485 672 l 257
 591 672 l 257
 761 523 l 257
 761 672 l 257
 867 672 l 257
 867 405 l 257
 761 405 l 257
 591 552 l 257
 591 405 l 257
 485 405 l 257
280 2 m 257
 669 278 l 257
 1066 2 l 257
 922 461 l 257
 1313 755 l 257
 828 755 l 257
 669 1215 l 257
 519 755 l 257
 34 755 l 257
 423 461 l 257
 280 2 l 257
EndSplineSet
EndChar

StartChar: four
Encoding: 20 52 218
Width: 1200
VWidth: 0
GlyphClass: 2
Flags: W
PickledData: "(dp1
S'org.pippin.gimp.org.kernagic'
p2
(dp3
S'lstem'
p4
I0
sS'rstem'
p5
I0
ssS'com.typemytype.robofont.layerData'
p6
(dp7
sS'org.robofab.postScriptHintData'
p8
(dp9
s."
LayerCount: 2
Fore
SplineSet
828 0 m 257
 914 0 l 257
 914 407 l 257
 1088 407 l 257
 1098 477 l 257
 914 477 l 257
 913 1456 l 257
 850 1456 l 257
 131 515 l 257
 134 407 l 257
 828 407 l 257
 828 0 l 257
225 480 m 257
 826 1311 l 257
 826 480 l 257
 225 480 l 257
EndSplineSet
EndChar

StartChar: fraction
Encoding: 459 8260 219
Width: 1017
VWidth: 0
GlyphClass: 2
Flags: W
PickledData: "(dp1
S'org.robofab.postScriptHintData'
p2
(dp3
s."
LayerCount: 2
Fore
SplineSet
129 -154 m 257
 182 -154 l 257
 907 1560 l 257
 852 1560 l 257
 129 -154 l 257
EndSplineSet
EndChar

StartChar: g
Encoding: 71 103 220
Width: 1257
VWidth: 0
GlyphClass: 2
Flags: W
PickledData: "(dp1
S'org.pippin.gimp.org.kernagic'
p2
(dp3
S'lstem'
p4
I0
sS'rstem'
p5
I0
ssS'com.fontlab.hintData'
p6
(dp7
S'vhints'
p8
((dp9
S'position'
p10
I128
sS'width'
p11
I122
s(dp12
g10
I977
sg11
I125
s(dp13
g10
I977
sg11
I36
stp14
sS'hhints'
p15
((dp16
g10
I-426
sg11
I101
s(dp17
g10
I0
sg11
I93
s(dp18
g10
I982
sg11
I92
stp19
ssS'com.typemytype.robofont.layerData'
p20
(dp21
sS'org.robofab.postScriptHintData'
p22
(dp23
s."
HStem: -426 101 0 93 982 92
VStem: 128 122 977 125 977 36
AnchorPoint: "top" 616 1082 basechar 0
LayerCount: 2
Fore
SplineSet
574 -447 m 256
 974 -447 1080 -243 1080 78 c 258
 1080 1082 l 257
 991 1082 l 257
 982 902 l 257
 919 1015 799 1102 615 1102 c 256
 226 1102 120 785 120 536 c 256
 120 307 243 -1 600 -1 c 256
 807 0 925 103 984 207 c 257
 984 69 l 258
 984 -250 873 -373 560 -373 c 256
 460 -373 343 -350 294 -331 c 257
 283 -331 l 257
 282 -405 l 257
 326 -419 444 -447 574 -447 c 256
596 71 m 256
 314 71 217 351 217 536 c 256
 217 742 311 1032 598 1032 c 256
 859 1032 947 856 984 765 c 257
 984 319 l 257
 949 247 865 71 596 71 c 256
EndSplineSet
EndChar

StartChar: germandbls
Encoding: 158 223 226
Width: 1191
VWidth: 0
GlyphClass: 2
Flags: W
PickledData: "(dp1
S'org.pippin.gimp.org.kernagic'
p2
(dp3
S'lstem'
p4
I0
sS'rstem'
p5
I0
ssS'com.typemytype.robofont.layerData'
p6
(dp7
S'b'
(dp8
S'name'
p9
S'germandbls'
p10
sS'lib'
p11
(dp12
sS'unicodes'
p13
(tsS'width'
p14
I1278
sS'contours'
p15
(tsS'components'
p16
(tsS'anchors'
p17
(tsssS'org.robofab.postScriptHintData'
p18
(dp19
s."
LayerCount: 2
Fore
SplineSet
798 -18 m 256
 987 -18 1094 102 1094 273 c 256
 1094 556 695 618 695 747 c 256
 695 853 928 1010 928 1198 c 256
 928 1355 824 1496 601 1496 c 256
 300 1496 201 1318 201 1027 c 258
 201 0 l 257
 301 0 l 257
 301 1038 l 258
 301 1330 393 1422 599 1422 c 256
 757 1422 823 1328 823 1204 c 256
 823 973 612 906 612 742 c 256
 612 542 1003 493 1003 261 c 256
 1003 181 961 62 802 62 c 256
 669 62 560 107 495 142 c 257
 461 63 l 257
 513 29 651 -18 798 -18 c 256
EndSplineSet
EndChar

StartChar: grave
Encoding: 64 96 227
Width: 804
VWidth: 0
GlyphClass: 4
Flags: W
PickledData: "(dp1
S'org.robofab.postScriptHintData'
p2
(dp3
sS'com.typemytype.robofont.layerData'
p4
(dp5
s."
AnchorPoint: "top" 431 1082 mark 0
LayerCount: 2
Fore
SplineSet
389 1260 m 257
 443 1260 l 257
 229 1611 l 257
 108 1611 l 257
 389 1260 l 257
EndSplineSet
EndChar

StartChar: greater
Encoding: 30 62 228
Width: 1234
VWidth: 0
GlyphClass: 2
Flags: W
PickledData: "(dp1
S'org.pippin.gimp.org.kernagic'
p2
(dp3
S'lstem'
p4
I0
sS'rstem'
p5
I0
ssS'com.typemytype.robofont.layerData'
p6
(dp7
S'b'
(dp8
S'name'
p9
S'greater'
p10
sS'lib'
p11
(dp12
sS'unicodes'
p13
(tsS'width'
p14
I1107
sS'contours'
p15
(tsS'components'
p16
(tsS'anchors'
p17
(tsssS'org.robofab.postScriptHintData'
p18
(dp19
s."
LayerCount: 2
Fore
SplineSet
148 1017 m 257
 981 586 l 257
 144 197 l 257
 144 114 l 257
 1083 552 l 257
 1083 612 l 257
 148 1105 l 257
 148 1017 l 257
EndSplineSet
EndChar

StartChar: greaterequal
Encoding: 480 8805 229
Width: 1249
VWidth: 0
GlyphClass: 2
Flags: W
PickledData: "(dp1
S'org.pippin.gimp.org.kernagic'
p2
(dp3
S'lstem'
p4
I0
sS'rstem'
p5
I0
ssS'com.typemytype.robofont.layerData'
p6
(dp7
S'b'
(dp8
S'name'
p9
S'greaterequal'
p10
sS'lib'
p11
(dp12
sS'unicodes'
p13
(tsS'width'
p14
I1192
sS'contours'
p15
(tsS'components'
p16
(tsS'anchors'
p17
(tsssS'org.robofab.postScriptHintData'
p18
(dp19
s."
LayerCount: 2
Fore
SplineSet
218 229 m 257
 218 312 l 257
 1002 750 l 257
 218 1212 l 257
 218 1301 l 257
 1086 775 l 257
 1086 723 l 257
 218 229 l 257
1140 0 m 257
 173 0 l 257
 173 74 l 257
 1140 74 l 257
 1140 0 l 257
EndSplineSet
EndChar

StartChar: guillemotleft
Encoding: 106 171 230
Width: 1010
VWidth: 0
GlyphClass: 2
Flags: W
PickledData: "(dp1
S'org.pippin.gimp.org.kernagic'
p2
(dp3
S'lstem'
p4
I0
sS'rstem'
p5
I0
ssS'com.typemytype.robofont.layerData'
p6
(dp7
S'b'
(dp8
S'name'
p9
S'guillemotleft'
p10
sS'lib'
p11
(dp12
sS'unicodes'
p13
(tsS'width'
p14
I994
sS'contours'
p15
(tsS'components'
p16
(tsS'anchors'
p17
(tsssS'org.robofab.postScriptHintData'
p18
(dp19
s."
LayerCount: 2
Fore
SplineSet
410 163 m 257
 470 175 l 257
 212 540 l 257
 478 899 l 257
 414 912 l 257
 140 537 l 257
 410 163 l 257
725 163 m 257
 785 175 l 257
 526 540 l 257
 792 899 l 257
 728 912 l 257
 455 537 l 257
 725 163 l 257
EndSplineSet
EndChar

StartChar: guillemotright
Encoding: 122 187 231
Width: 966
VWidth: 0
GlyphClass: 2
Flags: W
PickledData: "(dp1
S'org.pippin.gimp.org.kernagic'
p2
(dp3
S'lstem'
p4
I0
sS'rstem'
p5
I0
ssS'com.typemytype.robofont.layerData'
p6
(dp7
sS'org.robofab.postScriptHintData'
p8
(dp9
s."
LayerCount: 2
Fore
SplineSet
233 163 m 257
 506 537 l 257
 236 912 l 257
 176 900 l 257
 435 534 l 257
 168 176 l 257
 233 163 l 257
548 163 m 257
 821 537 l 257
 551 912 l 257
 491 900 l 257
 750 534 l 257
 484 176 l 257
 548 163 l 257
EndSplineSet
EndChar

StartChar: guilsinglleft
Encoding: 457 8249 232
Width: 659
VWidth: 0
GlyphClass: 2
Flags: W
PickledData: "(dp1
S'org.robofab.postScriptHintData'
p2
(dp3
s."
LayerCount: 2
Fore
SplineSet
446 138 m 257
 526 138 l 257
 215 566 l 257
 530 1006 l 257
 449 1006 l 257
 129 567 l 257
 446 138 l 257
EndSplineSet
EndChar

StartChar: guilsinglright
Encoding: 458 8250 233
Width: 683
VWidth: 0
GlyphClass: 2
Flags: W
PickledData: "(dp1
S'org.pippin.gimp.org.kernagic'
p2
(dp3
S'lstem'
p4
I0
sS'rstem'
p5
I0
ssS'com.typemytype.robofont.layerData'
p6
(dp7
S'b'
(dp8
S'name'
p9
S'guilsinglright'
p10
sS'lib'
p11
(dp12
sS'unicodes'
p13
(tsS'width'
p14
I766
sS'contours'
p15
(tsS'components'
p16
(tsS'anchors'
p17
(tsssS'org.robofab.postScriptHintData'
p18
(dp19
s."
LayerCount: 2
Fore
SplineSet
162 138 m 257
 243 138 l 257
 564 580 l 257
 246 1007 l 257
 166 1007 l 257
 476 581 l 257
 162 138 l 257
EndSplineSet
EndChar

StartChar: h
Encoding: 72 104 234
Width: 1183
VWidth: 0
GlyphClass: 2
Flags: W
PickledData: "(dp1
S'org.pippin.gimp.org.kernagic'
p2
(dp3
S'lstem'
p4
I0
sS'rstem'
p5
I0
ssS'com.fontlab.hintData'
p6
(dp7
S'vhints'
p8
((dp9
S'position'
p10
I193
sS'width'
p11
I122
s(dp12
g10
I910
sg11
I122
stp13
sS'hhints'
p14
((dp15
g10
I982
sg11
I92
stp16
ssS'com.typemytype.robofont.layerData'
p17
(dp18
sS'org.robofab.postScriptHintData'
p19
(dp20
s."
HStem: 982 92
VStem: 193 122 910 122
AnchorPoint: "top" 578 1286 basechar 0
LayerCount: 2
Fore
SplineSet
188 0 m 257
 285 0 l 257
 285 655 l 258
 285 816 361 1032 652 1032 c 256
 842 1032 911 910 911 680 c 258
 911 0 l 257
 1008 0 l 257
 1008 674 l 258
 1008 931 901 1102 664 1102 c 256
 491 1102 354 1035 280 895 c 257
 285 1123 l 257
 285 1560 l 257
 188 1540 l 257
 188 0 l 257
EndSplineSet
EndChar

StartChar: hungarumlaut
Encoding: 406 733 237
Width: 671
VWidth: 0
GlyphClass: 4
Flags: W
PickledData: "(dp1
S'org.robofab.postScriptHintData'
p2
(dp3
sS'com.typemytype.robofont.layerData'
p4
(dp5
s."
AnchorPoint: "top" 233 1082 mark 0
LayerCount: 2
Fore
SplineSet
344 1260 m 257
 398 1260 l 257
 663 1611 l 257
 558 1611 l 257
 344 1260 l 257
124 1260 m 257
 178 1260 l 257
 443 1611 l 257
 338 1611 l 257
 124 1260 l 257
EndSplineSet
EndChar

StartChar: hyphen
Encoding: 13 45 238
Width: 811
VWidth: 0
GlyphClass: 4
Flags: W
PickledData: "(dp1
S'org.pippin.gimp.org.kernagic'
p2
(dp3
S'lstem'
p4
I0
sS'rstem'
p5
I0
ssS'com.typemytype.robofont.layerData'
p6
(dp7
sS'org.robofab.postScriptHintData'
p8
(dp9
s."
LayerCount: 2
Fore
SplineSet
143 534 m 257
 641 534 l 257
 641 606 l 257
 143 606 l 257
 143 534 l 257
EndSplineSet
EndChar

StartChar: i
Encoding: 73 105 239
Width: 487
VWidth: 0
GlyphClass: 2
Flags: HW
PickledData: "(dp1
S'org.robofab.postScriptHintData'
p2
(dp3
sS'com.typemytype.robofont.layerData'
p4
(dp5
s."
AnchorPoint: "top" 260 1082 basechar 0
LayerCount: 2
Fore
SplineSet
333 1406 m 256
 333 1453 310 1478 260 1478 c 256
 208 1478 186 1453 186 1406 c 256
 186 1358 208 1333 260 1333 c 256
 310 1333 333 1358 333 1406 c 256
208 1082 m 257
 208 0 l 257
 305 0 l 257
 305 1082 l 257
 208 1082 l 257
EndSplineSet
EndChar

StartChar: infinity
Encoding: 475 8734 250
Width: 1728
VWidth: 0
GlyphClass: 2
Flags: W
PickledData: "(dp1
S'org.pippin.gimp.org.kernagic'
p2
(dp3
S'lstem'
p4
I0
sS'rstem'
p5
I0
ssS'com.typemytype.robofont.layerData'
p6
(dp7
S'b'
(dp8
S'name'
p9
S'infinity'
p10
sS'lib'
p11
(dp12
sS'unicodes'
p13
(tsS'width'
p14
I1647
sS'contours'
p15
(tsS'components'
p16
(tsS'anchors'
p17
(tsssS'org.robofab.postScriptHintData'
p18
(dp19
s."
LayerCount: 2
Fore
SplineSet
862 688 m 257
 705 898 588 983 455 983 c 256
 249 983 110 846 110 642 c 256
 110 418 249 267 459 267 c 256
 598 267 716 350 869 555 c 257
 1023 350 1136 267 1268 267 c 256
 1475 267 1614 411 1614 625 c 256
 1614 839 1477 983 1270 983 c 256
 1129 983 1013 898 862 688 c 257
829 611 m 257
 703 417 596 338 461 338 c 256
 298 338 189 452 189 622 c 256
 189 790 295 904 454 904 c 256
 596 904 704 819 829 611 c 257
1525 647 m 256
 1525 462 1424 338 1270 338 c 256
 1158 338 1053 423 901 636 c 257
 1023 825 1129 904 1266 904 c 256
 1421 904 1525 801 1525 647 c 256
EndSplineSet
EndChar

StartChar: integral
Encoding: 476 8747 251
Width: 740
VWidth: 0
GlyphClass: 2
Flags: W
PickledData: "(dp1
S'org.pippin.gimp.org.kernagic'
p2
(dp3
S'lstem'
p4
I0
sS'rstem'
p5
I0
ssS'com.typemytype.robofont.layerData'
p6
(dp7
S'b'
(dp8
S'name'
p9
S'integral'
p10
sS'lib'
p11
(dp12
sS'unicodes'
p13
(tsS'width'
p14
I994
sS'contours'
p15
(tsS'components'
p16
(tsS'anchors'
p17
(tsssS'org.robofab.postScriptHintData'
p18
(dp19
s."
LayerCount: 2
Fore
SplineSet
330 1136 m 258
 330 -49 l 258
 330 -231 302 -341 165 -341 c 256
 138 -341 105 -337 69 -328 c 257
 69 -398 l 257
 110 -407 147 -411 180 -411 c 256
 361 -411 418 -281 418 -41 c 258
 418 1125 l 258
 418 1340 442 1404 559 1404 c 256
 586 1404 616 1399 652 1388 c 257
 652 1456 l 257
 608 1466 569 1471 535 1471 c 256
 383 1471 330 1372 330 1136 c 258
EndSplineSet
EndChar

StartChar: j
Encoding: 74 106 254
Width: 495
VWidth: 0
GlyphClass: 2
Flags: HW
PickledData: "(dp1
S'org.robofab.postScriptHintData'
p2
(dp3
sS'com.typemytype.robofont.layerData'
p4
(dp5
s."
LayerCount: 2
Fore
SplineSet
222 1082 m 257
 222 57 l 258
 222 -150 220 -221 66 -221 c 257
 29 -222 l 257
 25 -310 l 257
 80 -310 l 257
 225 -309 319 -245 319 -20 c 258
 319 1082 l 257
 222 1082 l 257
347 1405 m 256
 347 1452 324 1477 274 1477 c 256
 222 1477 200 1452 200 1405 c 256
 200 1357 222 1332 274 1332 c 256
 324 1332 347 1357 347 1405 c 256
EndSplineSet
EndChar

StartChar: k
Encoding: 75 107 256
Width: 1058
VWidth: 0
GlyphClass: 2
Flags: W
PickledData: "(dp1
S'org.pippin.gimp.org.kernagic'
p2
(dp3
S'lstem'
p4
I0
sS'rstem'
p5
I671
ssS'com.typemytype.robofont.layerData'
p6
(dp7
sS'org.robofab.postScriptHintData'
p8
(dp9
s."
AnchorPoint: "bot" 584 0 basechar 0
LayerCount: 2
Fore
SplineSet
189 0 m 257
 286 0 l 257
 286 396 l 257
 424 520 l 257
 907 0 l 257
 1018 0 l 257
 1018 5 l 257
 481 571 l 257
 1010 1077 l 257
 1010 1082 l 257
 907 1082 l 257
 280 488 l 257
 286 691 l 257
 286 1560 l 257
 189 1540 l 257
 189 0 l 257
EndSplineSet
EndChar

StartChar: kgreenlandic
Encoding: 247 312 258
Width: 1057
VWidth: 0
GlyphClass: 2
Flags: W
PickledData: "(dp1
S'org.robofab.postScriptHintData'
p2
(dp3
s."
LayerCount: 2
Fore
SplineSet
186 0 m 257
 284 0 l 257
 284 406 l 257
 422 529 l 257
 905 0 l 257
 1007 0 l 257
 1007 13 l 257
 479 580 l 257
 1000 1068 l 257
 1000 1082 l 257
 905 1082 l 257
 278 498 l 257
 284 700 l 257
 284 1082 l 257
 186 1082 l 257
 186 0 l 257
EndSplineSet
EndChar

StartChar: l
Encoding: 76 108 259
Width: 588
VWidth: 0
GlyphClass: 2
Flags: W
PickledData: "(dp1
S'org.pippin.gimp.org.kernagic'
p2
(dp3
S'lstem'
p4
I0
sS'rstem'
p5
I238
ssS'com.fontlab.hintData'
p6
(dp7
S'vhints'
p8
((dp9
S'position'
p10
I193
sS'width'
p11
I122
stp12
sS'hhints'
p13
((dp14
g10
I-11
sg11
I87
stp15
ssS'com.typemytype.robofont.layerData'
p16
(dp17
sS'org.robofab.postScriptHintData'
p18
(dp19
s."
HStem: -11 87
VStem: 193 122
AnchorPoint: "top" 344 1458 basechar 0
LayerCount: 2
Fore
SplineSet
434 -10 m 256
 492 -10 542 -7 565 -4 c 257
 566 61 l 257
 555 59 502 56 452 56 c 256
 322 56 288 126 288 244 c 258
 288 1560 l 257
 191 1540 l 257
 191 244 l 258
 191 27 329 -10 434 -10 c 256
EndSplineSet
EndChar

StartChar: less
Encoding: 28 60 264
Width: 1219
VWidth: 0
GlyphClass: 2
Flags: W
PickledData: "(dp1
S'org.pippin.gimp.org.kernagic'
p2
(dp3
S'lstem'
p4
I0
sS'rstem'
p5
I0
ssS'com.typemytype.robofont.layerData'
p6
(dp7
S'b'
(dp8
S'name'
p9
S'less'
p10
sS'lib'
p11
(dp12
sS'unicodes'
p13
(tsS'width'
p14
I1107
sS'contours'
p15
(tsS'components'
p16
(tsS'anchors'
p17
(tsssS'org.robofab.postScriptHintData'
p18
(dp19
s."
LayerCount: 2
Fore
SplineSet
1049 106 m 257
 1052 187 l 257
 204 586 l 257
 1053 1007 l 257
 1053 1096 l 257
 114 612 l 257
 114 554 l 257
 1049 106 l 257
EndSplineSet
EndChar

StartChar: lessequal
Encoding: 479 8804 265
Width: 1249
VWidth: 0
GlyphClass: 2
Flags: W
PickledData: "(dp1
S'org.robofab.postScriptHintData'
p2
(dp3
sS'com.typemytype.robofont.layerData'
p4
(dp5
s."
LayerCount: 2
Fore
SplineSet
1045 229 m 257
 1045 312 l 257
 261 750 l 257
 1045 1212 l 257
 1045 1301 l 257
 177 775 l 257
 177 723 l 257
 1045 229 l 257
123 0 m 257
 1090 0 l 257
 1090 74 l 257
 123 74 l 257
 123 0 l 257
EndSplineSet
EndChar

StartChar: logicalnot
Encoding: 107 172 266
Width: 1222
VWidth: 0
GlyphClass: 2
Flags: W
PickledData: "(dp1
S'org.pippin.gimp.org.kernagic'
p2
(dp3
S'lstem'
p4
I0
sS'rstem'
p5
I0
ssS'com.typemytype.robofont.layerData'
p6
(dp7
sS'org.robofab.postScriptHintData'
p8
(dp9
s."
LayerCount: 2
Fore
SplineSet
111 779 m 257
 111 706 l 257
 992 706 l 257
 992 263 l 257
 1061 263 l 257
 1061 779 l 257
 111 779 l 257
EndSplineSet
EndChar

StartChar: lozenge
Encoding: 481 9674 267
Width: 1189
VWidth: 0
GlyphClass: 2
Flags: W
PickledData: "(dp1
S'org.pippin.gimp.org.kernagic'
p2
(dp3
S'lstem'
p4
I0
sS'rstem'
p5
I0
ssS'com.typemytype.robofont.layerData'
p6
(dp7
S'b'
(dp8
S'name'
p9
S'lozenge'
p10
sS'lib'
p11
(dp12
sS'unicodes'
p13
(tsS'width'
p14
I1164
sS'contours'
p15
(tsS'components'
p16
(tsS'anchors'
p17
(tsssS'org.robofab.postScriptHintData'
p18
(dp19
s."
LayerCount: 2
Fore
SplineSet
536 1605 m 257
 104 781 l 257
 530 -40 l 257
 610 -40 l 257
 1041 784 l 257
 618 1605 l 257
 536 1605 l 257
952 780 m 257
 567 30 l 257
 194 783 l 257
 581 1527 l 257
 952 780 l 257
EndSplineSet
EndChar

StartChar: m
Encoding: 77 109 269
Width: 1781
VWidth: 0
GlyphClass: 2
Flags: W
PickledData: "(dp1
S'org.pippin.gimp.org.kernagic'
p2
(dp3
S'lstem'
p4
I0
sS'rstem'
p5
I0
ssS'com.fontlab.hintData'
p6
(dp7
S'vhints'
p8
((dp9
S'position'
p10
I193
sS'width'
p11
I122
s(dp12
g10
I193
sg11
I98
s(dp13
g10
I845
sg11
I122
s(dp14
g10
I1483
sg11
I122
stp15
sS'hhints'
p16
((dp17
g10
I982
sg11
I92
stp18
ssS'com.typemytype.robofont.layerData'
p19
(dp20
sS'org.robofab.postScriptHintData'
p21
(dp22
s."
HStem: 982 92
VStem: 193 122 193 98 845 122 1483 122
AnchorPoint: "top" 934 1082 basechar 0
LayerCount: 2
Fore
SplineSet
187 0 m 257
 285 0 l 257
 285 671 l 257
 287 841 369 1032 625 1032 c 256
 808 1032 848 909 848 716 c 258
 848 0 l 257
 946 0 l 257
 946 671 l 257
 947 842 1034 1032 1286 1032 c 256
 1471 1032 1509 907 1509 717 c 258
 1509 0 l 257
 1606 0 l 257
 1606 662 l 258
 1606 967 1519 1102 1289 1102 c 256
 1120 1102 983 1028 924 861 c 257
 887 1012 794 1102 628 1102 c 256
 472 1102 355 1035 280 901 c 257
 268 1082 l 257
 187 1082 l 257
 187 0 l 257
EndSplineSet
EndChar

StartChar: macron
Encoding: 110 175 270
Width: 1232
VWidth: 0
GlyphClass: 4
Flags: W
PickledData: "(dp1
S'org.robofab.postScriptHintData'
p2
(dp3
sS'com.typemytype.robofont.layerData'
p4
(dp5
s."
AnchorPoint: "top" 616 1082 mark 0
LayerCount: 2
Fore
SplineSet
355 1381 m 257
 828 1381 l 257
 828 1435 l 257
 355 1435 l 257
 355 1381 l 257
EndSplineSet
EndChar

StartChar: minus
Encoding: 471 8722 272
Width: 1089
VWidth: 0
GlyphClass: 2
Flags: W
PickledData: "(dp1
S'org.pippin.gimp.org.kernagic'
p2
(dp3
S'lstem'
p4
I0
sS'rstem'
p5
I0
ssS'com.typemytype.robofont.layerData'
p6
(dp7
sS'org.robofab.postScriptHintData'
p8
(dp9
s."
LayerCount: 2
Fore
SplineSet
67 680 m 257
 67 585 l 257
 996 585 l 257
 996 680 l 257
 67 680 l 257
EndSplineSet
EndChar

StartChar: multiply
Encoding: 150 215 273
Width: 664
VWidth: 0
GlyphClass: 2
Flags: W
PickledData: "(dp1
S'org.pippin.gimp.org.kernagic'
p2
(dp3
S'lstem'
p4
I0
sS'rstem'
p5
I0
ssS'com.typemytype.robofont.layerData'
p6
(dp7
sS'org.robofab.postScriptHintData'
p8
(dp9
s."
LayerCount: 2
Fore
SplineSet
37 858 m 257
 295 581 l 257
 22 288 l 257
 68 249 l 257
 337 536 l 257
 601 250 l 257
 642 291 l 257
 642 291 390 570 379 580 c 257
 637 852 l 257
 586 897 l 257
 337 627 l 257
 85 904 l 257
 37 858 l 257
EndSplineSet
EndChar

StartChar: n
Encoding: 78 110 274
Width: 1164
VWidth: 0
GlyphClass: 2
Flags: W
PickledData: "(dp1
S'org.pippin.gimp.org.kernagic'
p2
(dp3
S'lstem'
p4
I0
sS'rstem'
p5
I0
ssS'com.fontlab.hintData'
p6
(dp7
S'vhints'
p8
((dp9
S'position'
p10
I193
sS'width'
p11
I122
s(dp12
g10
I903
sg11
I122
stp13
sS'hhints'
p14
((dp15
g10
I0
sg11
I22
s(dp16
g10
I982
sg11
I92
s(dp17
g10
I1034
sg11
I21
stp18
ssS'com.typemytype.robofont.layerData'
p19
(dp20
sS'org.robofab.postScriptHintData'
p21
(dp22
s."
HStem: 0 22 982 92 1034 21
VStem: 193 122 903 122
AnchorPoint: "top" 643 1082 basechar 0
AnchorPoint: "bot" 584 0 basechar 0
LayerCount: 2
Fore
SplineSet
187 0 m 257
 285 0 l 257
 285 670 l 258
 285 840 352 1032 641 1032 c 256
 836 1032 893 906 892 711 c 257
 892 0 l 257
 990 0 l 257
 990 661 l 258
 990 966 885 1102 644 1102 c 256
 450 1102 338 1019 281 898 c 257
 267 1082 l 257
 187 1082 l 257
 187 0 l 257
EndSplineSet
EndChar

StartChar: nine
Encoding: 25 57 279
Width: 1200
VWidth: 0
GlyphClass: 2
Flags: W
PickledData: "(dp1
S'org.pippin.gimp.org.kernagic'
p2
(dp3
S'lstem'
p4
I0
sS'rstem'
p5
I0
ssS'com.typemytype.robofont.layerData'
p6
(dp7
sS'org.robofab.postScriptHintData'
p8
(dp9
s."
LayerCount: 2
Fore
SplineSet
361 0 m 257
 463 0 l 257
 792 439 l 258
 956 658 1060 798 1060 1031 c 256
 1060 1240 928 1476 626 1476 c 256
 342 1476 185 1267 185 1035 c 256
 185 778 393 613 601 613 c 256
 696 613 795 636 869 679 c 257
 696 459 530 232 361 8 c 257
 361 0 l 257
616 693 m 256
 401 693 271 840 271 1034 c 256
 271 1219 395 1402 626 1402 c 256
 861 1402 977 1224 977 1041 c 256
 977 743 718 693 616 693 c 256
EndSplineSet
EndChar

StartChar: notequal
Encoding: 478 8800 280
Width: 1158
VWidth: 0
GlyphClass: 2
Flags: W
PickledData: "(dp1
S'org.pippin.gimp.org.kernagic'
p2
(dp3
S'lstem'
p4
I0
sS'rstem'
p5
I0
ssS'com.typemytype.robofont.layerData'
p6
(dp7
S'b'
(dp8
S'name'
p9
S'notequal'
p10
sS'lib'
p11
(dp12
sS'unicodes'
p13
(tsS'width'
p14
I1079
sS'contours'
p15
(tsS'components'
p16
(tsS'anchors'
p17
(tsssS'org.robofab.postScriptHintData'
p18
(dp19
s."
LayerCount: 2
Fore
SplineSet
277 53 m 257
 453 377 l 257
 1002 377 l 257
 1002 449 l 257
 486 449 l 257
 695 831 l 257
 1002 831 l 257
 998 896 l 257
 725 896 l 257
 895 1213 l 257
 825 1214 l 257
 650 896 l 257
 113 896 l 257
 117 829 l 257
 620 829 l 257
 416 449 l 257
 113 449 l 257
 117 377 l 257
 374 377 l 257
 207 53 l 257
 277 53 l 257
EndSplineSet
EndChar

StartChar: numbersign
Encoding: 3 35 282
Width: 1175
VWidth: 0
GlyphClass: 2
Flags: W
PickledData: "(dp1
S'org.pippin.gimp.org.kernagic'
p2
(dp3
S'lstem'
p4
I0
sS'rstem'
p5
I0
ssS'com.typemytype.robofont.layerData'
p6
(dp7
sS'org.robofab.postScriptHintData'
p8
(dp9
s."
LayerCount: 2
Fore
SplineSet
240 -1 m 257
 309 -1 l 257
 398 435 l 257
 693 435 l 257
 607 -1 l 257
 675 -1 l 257
 764 435 l 257
 954 435 l 257
 966 500 l 257
 777 500 l 257
 871 965 l 257
 1044 965 l 257
 1056 1029 l 257
 885 1029 l 257
 971 1459 l 257
 902 1459 l 257
 815 1029 l 257
 519 1029 l 257
 606 1459 l 257
 537 1459 l 257
 449 1029 l 257
 274 1029 l 257
 266 965 l 257
 435 965 l 257
 342 500 l 257
 184 500 l 257
 175 435 l 257
 329 435 l 257
 240 -1 l 257
412 500 m 257
 506 965 l 257
 801 965 l 257
 707 500 l 257
 412 500 l 257
EndSplineSet
EndChar

StartChar: o
Encoding: 79 111 283
Width: 1199
VWidth: 0
GlyphClass: 2
Flags: W
PickledData: "(dp1
S'org.pippin.gimp.org.kernagic'
p2
(dp3
S'lstem'
p4
I0
sS'rstem'
p5
I0
ssS'com.typemytype.robofont.guides'
p6
((dp7
S'y'
I1093
sS'x'
I582
sS'magnetic'
p8
I5
sS'angle'
p9
F90
sS'isGlobal'
p10
I00
stp11
sS'com.fontlab.hintData'
p12
(dp13
S'vhints'
p14
((dp15
S'position'
p16
I128
sS'width'
p17
I120
s(dp18
g16
I982
sg17
I120
stp19
sS'hhints'
p20
((dp21
g16
I-19
sg17
I92
s(dp22
g16
I982
sg17
I92
stp23
ssS'com.typemytype.robofont.layerData'
p24
(dp25
sS'org.robofab.postScriptHintData'
p26
(dp27
s."
HStem: -19 92 982 92
VStem: 128 120 982 120
AnchorPoint: "top" 603 1082 basechar 0
LayerCount: 2
Fore
SplineSet
600 49 m 256
 367 49 218 257 218 539 c 256
 218 839 367 1033 600 1033 c 256
 832 1033 982 838 982 538 c 256
 982 257 832 49 600 49 c 256
600 -20 m 256
 889 -20 1079 216 1079 541 c 256
 1079 881 889 1102 600 1102 c 256
 310 1102 120 881 120 541 c 256
 120 216 310 -20 600 -20 c 256
EndSplineSet
Substitution2: "Single Substitution lookup 4 subtable" ordmasculine
EndChar

StartChar: oe
Encoding: 274 339 288
Width: 1988
VWidth: 0
GlyphClass: 2
Flags: W
PickledData: "(dp1
S'org.pippin.gimp.org.kernagic'
p2
(dp3
S'lstem'
p4
I0
sS'rstem'
p5
I0
ssS'com.typemytype.robofont.layerData'
p6
(dp7
S'b'
(dp8
S'name'
p9
S'oe'
p10
sS'lib'
p11
(dp12
sS'unicodes'
p13
(tsS'width'
p14
F1915.3599999999999
sS'contours'
p15
(tsS'components'
p16
(tsS'anchors'
p17
(tsssS'org.robofab.postScriptHintData'
p18
(dp19
s."
LayerCount: 2
Fore
SplineSet
1802 143 m 257
 1672 79 1603 55 1476 55 c 256
 1276 55 1084 182 1084 527 c 257
 1859 527 l 257
 1859 527 1864 560 1864 592 c 256
 1864 887 1722 1071 1472 1071 c 258
 1470 1071 l 258
 1290 1071 1101 950 1041 717 c 257
 994 940 827 1071 604 1071 c 256
 301 1071 124 832 124 522 c 256
 124 217 300 -18 604 -18 c 256
 803 -18 971 103 1034 319 c 257
 1095 90 1269 -18 1474 -18 c 256
 1653 -18 1740 31 1841 85 c 257
 1814 143 l 257
 1802 143 l 257
604 51 m 256
 343 51 220 272 220 520 c 256
 220 779 342 1001 604 1001 c 256
 873 1001 987 778 987 519 c 256
 987 273 876 51 604 51 c 256
1088 589 m 257
 1111 824 1251 999 1481 999 c 256
 1692 998 1780 854 1787 589 c 257
 1088 589 l 257
EndSplineSet
EndChar

StartChar: ogonek
Encoding: 404 731 289
Width: 629
VWidth: 0
GlyphClass: 4
Flags: W
PickledData: "(dp1
S'org.pippin.gimp.org.kernagic'
p2
(dp3
S'lstem'
p4
I0
sS'rstem'
p5
I0
ssS'com.typemytype.robofont.layerData'
p6
(dp7
sS'org.robofab.postScriptHintData'
p8
(dp9
s."
LayerCount: 2
Fore
SplineSet
320 -388 m 256
 361 -388 402 -379 432 -364 c 257
 432 -364 433 -331 433 -318 c 258
 433 -313 l 257
 407 -325 375 -332 346 -332 c 256
 292 -332 246 -305 246 -236 c 256
 246 -147 329 -58 416 0 c 257
 357 0 l 257
 233 -71 166 -176 166 -262 c 256
 166 -353 240 -388 320 -388 c 256
EndSplineSet
EndChar

StartChar: one
Encoding: 17 49 293
Width: 1200
VWidth: 0
GlyphClass: 2
Flags: W
PickledData: "(dp1
S'org.pippin.gimp.org.kernagic'
p2
(dp3
S'lstem'
p4
I0
sS'rstem'
p5
I0
ssS'com.typemytype.robofont.layerData'
p6
(dp7
sS'org.robofab.postScriptHintData'
p8
(dp9
s."
LayerCount: 2
Fore
SplineSet
236 0 m 257
 1053 0 l 257
 1053 72 l 257
 715 72 l 257
 714 1456 l 257
 613 1456 l 257
 542 1406 336 1349 279 1344 c 257
 279 1266 l 257
 336 1272 515 1317 617 1372 c 257
 617 72 l 257
 236 72 l 257
 236 0 l 257
EndSplineSet
EndChar

StartChar: onehalf
Encoding: 124 189 294
Width: 1688
VWidth: 0
GlyphClass: 3
Flags: W
PickledData: "(dp1
S'org.pippin.gimp.org.kernagic'
p2
(dp3
S'lstem'
p4
I0
sS'rstem'
p5
I0
ssS'com.typemytype.robofont.layerData'
p6
(dp7
sS'org.robofab.postScriptHintData'
p8
(dp9
s."
LayerCount: 2
Fore
SplineSet
1048 0 m 257
 1557 0 l 257
 1554 69 l 257
 1153 69 l 257
 1240 160 1327 234 1385 294 c 256
 1505 410 1568 488 1568 597 c 256
 1568 747 1458 839 1307 839 c 256
 1175 839 1070 773 1013 660 c 257
 1074 623 l 257
 1135 724 1209 767 1307 767 c 256
 1416 767 1484 698 1484 597 c 256
 1484 511 1443 450 1333 340 c 256
 1270 274 1165 183 1048 62 c 257
 1048 0 l 257
115 682 m 257
 505 682 l 257
 505 739 l 257
 359 739 l 257
 359 1511 l 257
 293 1511 l 257
 247 1464 166 1434 108 1413 c 257
 108 1352 l 257
 164 1372 243 1404 280 1430 c 257
 280 739 l 257
 115 739 l 257
 115 682 l 257
376 0 m 257
 456 0 l 257
 1330 1525 l 257
 1249 1525 l 257
 376 0 l 257
EndSplineSet
Ligature2: "fracDiagonalFractionslookup11 subtable" one slash two
EndChar

StartChar: onequarter
Encoding: 123 188 295
Width: 1637
VWidth: 0
GlyphClass: 3
Flags: W
PickledData: "(dp1
S'org.pippin.gimp.org.kernagic'
p2
(dp3
S'lstem'
p4
I0
sS'rstem'
p5
I0
ssS'com.typemytype.robofont.layerData'
p6
(dp7
sS'org.robofab.postScriptHintData'
p8
(dp9
s."
LayerCount: 2
Fore
SplineSet
115 682 m 257
 505 682 l 257
 505 739 l 257
 359 739 l 257
 359 1511 l 257
 293 1511 l 257
 247 1464 166 1434 108 1413 c 257
 108 1352 l 257
 164 1372 243 1404 280 1430 c 257
 280 739 l 257
 115 739 l 257
 115 682 l 257
1372 -1 m 257
 1448 -1 l 257
 1448 218 l 257
 1575 218 l 257
 1568 275 l 257
 1450 275 l 257
 1450 828 l 257
 1362 828 l 257
 975 265 l 257
 975 218 l 257
 1372 218 l 257
 1372 -1 l 257
391 0 m 257
 472 0 l 257
 1345 1525 l 257
 1264 1525 l 257
 391 0 l 257
1062 275 m 257
 1373 738 l 257
 1373 275 l 257
 1062 275 l 257
EndSplineSet
Ligature2: "fracDiagonalFractionslookup11 subtable" one slash four
EndChar

StartChar: ordmasculine
Encoding: 121 186 297
Width: 853
VWidth: 0
GlyphClass: 2
Flags: W
PickledData: "(dp1
S'org.pippin.gimp.org.kernagic'
p2
(dp3
S'lstem'
p4
I0
sS'rstem'
p5
I0
ssS'com.typemytype.robofont.layerData'
p6
(dp7
S'b'
(dp8
S'name'
p9
S'ordmasculine'
p10
sS'lib'
p11
(dp12
sS'unicodes'
p13
(tsS'width'
p14
I965
sS'contours'
p15
(tsS'components'
p16
(tsS'anchors'
p17
(tsssS'org.robofab.postScriptHintData'
p18
(dp19
s."
LayerCount: 2
Fore
SplineSet
94 1172 m 256
 94 960 218 802 426 802 c 256
 623 802 759 963 759 1172 c 256
 759 1391 641 1547 426 1547 c 256
 218 1547 94 1388 94 1172 c 256
665 1170 m 256
 665 1011 588 873 426 873 c 256
 273 873 196 1013 196 1173 c 256
 196 1336 274 1475 426 1475 c 256
 584 1475 665 1334 665 1170 c 256
EndSplineSet
EndChar

StartChar: oslash
Encoding: 183 248 298
Width: 1199
VWidth: 0
GlyphClass: 2
Flags: W
PickledData: "(dp1
S'org.pippin.gimp.org.kernagic'
p2
(dp3
S'lstem'
p4
I0
sS'rstem'
p5
I0
ssS'com.typemytype.robofont.layerData'
p6
(dp7
sS'org.robofab.postScriptHintData'
p8
(dp9
s."
LayerCount: 2
Fore
SplineSet
232 -121 m 257
 292 -152 l 257
 1022 1191 l 257
 958 1220 l 257
 232 -121 l 257
EndSplineSet
Refer: 283 111 N 1 0 0 1 0 0 2
EndChar

StartChar: p
Encoding: 80 112 301
Width: 1233
VWidth: 0
GlyphClass: 2
Flags: W
PickledData: "(dp1
S'org.pippin.gimp.org.kernagic'
p2
(dp3
S'lstem'
p4
I0
sS'rstem'
p5
I0
ssS'com.fontlab.hintData'
p6
(dp7
S'vhints'
p8
((dp9
S'position'
p10
I193
sS'width'
p11
I122
s(dp12
g10
I193
sg11
I97
s(dp13
g10
I1009
sg11
I122
stp14
sS'hhints'
p15
((dp16
g10
I-19
sg11
I92
s(dp17
g10
I982
sg11
I92
stp18
ssS'com.typemytype.robofont.layerData'
p19
(dp20
sS'org.robofab.postScriptHintData'
p21
(dp22
s."
HStem: -19 92 982 92
VStem: 193 122 193 97 1009 122
AnchorPoint: "top" 658 1082 basechar 0
LayerCount: 2
Fore
SplineSet
187 -489 m 257
 284 -482 l 257
 284 -100 l 257
 273 196 l 257
 342 54 477 -20 647 -20 c 256
 926 -20 1113 185 1113 537 c 256
 1113 910 935 1102 655 1102 c 256
 450 1102 328 981 272 826 c 257
 261 1082 l 257
 187 1082 l 257
 187 -489 l 257
646 50 m 256
 438 50 325 164 279 334 c 257
 279 557 l 258
 279 815 381 1032 653 1032 c 256
 889 1032 1015 864 1015 537 c 256
 1015 230 882 50 646 50 c 256
EndSplineSet
EndChar

StartChar: paragraph
Encoding: 117 182 302
Width: 1119
VWidth: 0
GlyphClass: 2
Flags: W
PickledData: "(dp1
S'org.pippin.gimp.org.kernagic'
p2
(dp3
S'lstem'
p4
I0
sS'rstem'
p5
I0
ssS'com.typemytype.robofont.layerData'
p6
(dp7
sS'org.robofab.postScriptHintData'
p8
(dp9
s."
LayerCount: 2
Fore
SplineSet
642 1393 m 257
 800 1393 l 257
 800 -194 l 257
 872 -194 l 257
 872 1456 l 257
 516 1456 l 258
 166 1456 151 1244 151 1155 c 256
 151 993 230 831 570 831 c 257
 570 -194 l 257
 642 -194 l 257
 642 1393 l 257
EndSplineSet
EndChar

StartChar: parenright
Encoding: 9 41 304
Width: 693
VWidth: 0
GlyphClass: 2
Flags: W
PickledData: "(dp1
S'org.pippin.gimp.org.kernagic'
p2
(dp3
S'lstem'
p4
I0
sS'rstem'
p5
I0
ssS'com.typemytype.robofont.layerData'
p6
(dp7
S'b'
(dp8
S'name'
p9
S'parenright'
p10
sS'lib'
p11
(dp12
sS'unicodes'
p13
(tsS'width'
p14
I766
sS'contours'
p15
(tsS'components'
p16
(tsS'anchors'
p17
(tsssS'org.robofab.postScriptHintData'
p18
(dp19
s."
LayerCount: 2
Fore
SplineSet
478 701 m 256
 478 1011 401 1318 228 1580 c 257
 137 1580 l 257
 137 1568 l 257
 348 1238 377 986 377 701 c 256
 377 417 348 165 137 -165 c 257
 137 -177 l 257
 228 -177 l 257
 401 85 478 392 478 701 c 256
EndSplineSet
EndChar

StartChar: partialdiff
Encoding: 466 8706 305
Width: 1181
VWidth: 0
GlyphClass: 2
Flags: W
PickledData: "(dp1
S'org.robofab.postScriptHintData'
p2
(dp3
s."
LayerCount: 2
Fore
SplineSet
481 -19 m 256
 810 -19 1027 380 1027 906 c 256
 1027 1318 831 1560 544 1560 c 256
 452 1560 350 1535 243 1482 c 257
 265 1429 l 257
 367 1474 457 1495 535 1495 c 256
 807 1495 934 1245 940 917 c 257
 472 917 191 537 191 261 c 256
 191 104 282 -19 481 -19 c 256
482 35 m 256
 351 35 291 125 291 246 c 256
 291 490 537 859 940 859 c 257
 937 456 750 35 482 35 c 256
EndSplineSet
EndChar

StartChar: percent
Encoding: 5 37 306
Width: 1806
VWidth: 0
GlyphClass: 2
Flags: W
PickledData: "(dp1
S'org.pippin.gimp.org.kernagic'
p2
(dp3
S'lstem'
p4
I0
sS'rstem'
p5
I0
ssS'com.typemytype.robofont.layerData'
p6
(dp7
S'b'
(dp8
S'name'
p9
S'percent'
p10
sS'lib'
p11
(dp12
sS'unicodes'
p13
(tsS'width'
p14
I1563
sS'contours'
p15
(tsS'components'
p16
(tsS'anchors'
p17
(tsssS'org.robofab.postScriptHintData'
p18
(dp19
s."
LayerCount: 2
Fore
SplineSet
417 778 m 256
 245 778 173 909 173 1088 c 256
 173 1264 244 1397 417 1397 c 256
 587 1397 658 1270 658 1088 c 256
 658 914 588 778 417 778 c 256
414 711 m 256
 636 711 743 876 743 1088 c 256
 743 1303 639 1463 414 1463 c 256
 194 1463 86 1300 86 1088 c 256
 86 876 190 711 414 711 c 256
435 0 m 257
 534 0 l 257
 1356 1455 l 257
 1267 1455 l 257
 435 0 l 257
1369 54 m 256
 1198 54 1125 185 1125 364 c 256
 1125 540 1197 673 1369 673 c 256
 1539 673 1611 546 1611 364 c 256
 1611 190 1540 54 1369 54 c 256
1367 -13 m 256
 1589 -13 1696 152 1696 364 c 256
 1696 580 1592 740 1367 740 c 256
 1147 740 1039 577 1039 364 c 256
 1039 152 1143 -13 1367 -13 c 256
EndSplineSet
EndChar

StartChar: period
Encoding: 14 46 307
Width: 459
VWidth: 0
GlyphClass: 2
Flags: W
PickledData: "(dp1
S'org.pippin.gimp.org.kernagic'
p2
(dp3
S'lstem'
p4
I0
sS'rstem'
p5
I0
ssS'com.typemytype.robofont.layerData'
p6
(dp7
S'b'
(dp8
S'name'
p9
S'period'
p10
sS'lib'
p11
(dp12
sS'unicodes'
p13
(tsS'width'
p14
I624
sS'contours'
p15
(tsS'components'
p16
(tsS'anchors'
p17
(tsssS'org.robofab.postScriptHintData'
p18
(dp19
s."
LayerCount: 2
Fore
SplineSet
235 -21 m 256
 299 -21 311 23 311 58 c 256
 311 92 299 136 235 136 c 256
 167 136 157 92 157 58 c 256
 157 24 170 -21 235 -21 c 256
EndSplineSet
EndChar

StartChar: periodcentered
Encoding: 118 183 308
Width: 417
VWidth: 0
GlyphClass: 2
Flags: W
PickledData: "(dp1
S'org.pippin.gimp.org.kernagic'
p2
(dp3
S'lstem'
p4
I0
sS'rstem'
p5
I0
ssS'com.typemytype.robofont.layerData'
p6
(dp7
S'b'
(dp8
S'name'
p9
S'periodcentered'
p10
sS'lib'
p11
(dp12
sS'unicodes'
p13
(tsS'width'
p14
I653
sS'contours'
p15
(tsS'components'
p16
(tsS'anchors'
p17
(tsssS'org.robofab.postScriptHintData'
p18
(dp19
s."
LayerCount: 2
Fore
SplineSet
209 546 m 256
 273 546 287 590 287 625 c 256
 287 659 273 703 209 703 c 256
 142 703 130 659 130 625 c 256
 130 591 145 546 209 546 c 256
EndSplineSet
EndChar

StartChar: perthousand
Encoding: 456 8240 309
Width: 2642
VWidth: 0
GlyphClass: 2
Flags: W
PickledData: "(dp1
S'org.pippin.gimp.org.kernagic'
p2
(dp3
S'lstem'
p4
I0
sS'rstem'
p5
I0
ssS'com.typemytype.robofont.layerData'
p6
(dp7
S'b'
(dp8
S'name'
p9
S'perthousand'
p10
sS'lib'
p11
(dp12
sS'unicodes'
p13
(tsS'width'
p14
I2251
sS'contours'
p15
(tsS'components'
p16
(tsS'anchors'
p17
(tsssS'org.robofab.postScriptHintData'
p18
(dp19
s."
LayerCount: 2
Fore
SplineSet
2206 54 m 256
 2034 54 1962 185 1962 364 c 256
 1962 540 2034 673 2206 673 c 256
 2377 673 2447 546 2447 364 c 256
 2447 190 2378 54 2206 54 c 256
2203 -13 m 256
 2426 -13 2533 152 2533 364 c 256
 2533 580 2429 740 2203 740 c 256
 1983 740 1876 577 1876 364 c 256
 1876 152 1979 -13 2203 -13 c 256
EndSplineSet
Refer: 306 37 N 1 0 0 1 1 0 2
EndChar

StartChar: pi
Encoding: 417 960 310
Width: 1298
VWidth: 0
GlyphClass: 2
Flags: W
PickledData: "(dp1
S'org.robofab.postScriptHintData'
p2
(dp3
sS'com.typemytype.robofont.layerData'
p4
(dp5
s."
LayerCount: 2
Fore
SplineSet
1047 -7 m 256
 1100 -7 1154 12 1197 44 c 257
 1197 95 l 257
 1170 84 1129 74 1088 74 c 256
 979 74 935 155 935 347 c 256
 935 491 959 728 1000 1010 c 257
 1240 1010 l 257
 1240 1082 l 257
 406 1082 l 258
 188 1082 134 1004 134 786 c 257
 190 786 l 257
 202 951 242 1010 343 1010 c 258
 465 1010 l 257
 369 342 l 258
 337 124 196 63 105 63 c 257
 105 4 l 257
 379 4 420 115 447 335 c 258
 528 1010 l 257
 934 1010 l 257
 887 689 855 431 855 274 c 256
 855 73 907 -7 1047 -7 c 256
EndSplineSet
EndChar

StartChar: plus
Encoding: 11 43 311
Width: 1151
VWidth: 0
GlyphClass: 2
Flags: W
PickledData: "(dp1
S'org.pippin.gimp.org.kernagic'
p2
(dp3
S'lstem'
p4
I0
sS'rstem'
p5
I0
ssS'com.typemytype.robofont.layerData'
p6
(dp7
S'b'
(dp8
S'name'
p9
S'plus'
p10
sS'lib'
p11
(dp12
sS'unicodes'
p13
(tsS'width'
p14
I1136
sS'contours'
p15
(tsS'components'
p16
(tsS'anchors'
p17
(tsssS'org.robofab.postScriptHintData'
p18
(dp19
s."
LayerCount: 2
Fore
SplineSet
535 1053 m 257
 535 658 l 257
 158 658 l 257
 158 604 l 257
 535 604 l 257
 535 198 l 257
 613 198 l 257
 613 604 l 257
 981 604 l 257
 981 658 l 257
 613 658 l 257
 613 1053 l 257
 535 1053 l 257
EndSplineSet
EndChar

StartChar: plusminus
Encoding: 112 177 312
Width: 1169
VWidth: 0
GlyphClass: 2
Flags: W
PickledData: "(dp1
S'org.pippin.gimp.org.kernagic'
p2
(dp3
S'lstem'
p4
I0
sS'rstem'
p5
I0
ssS'com.typemytype.robofont.layerData'
p6
(dp7
sS'org.robofab.postScriptHintData'
p8
(dp9
s."
LayerCount: 2
Fore
SplineSet
533 1044 m 257
 533 640 l 257
 148 640 l 257
 148 589 l 257
 533 589 l 257
 533 175 l 257
 606 175 l 257
 606 589 l 257
 981 589 l 257
 981 640 l 257
 606 640 l 257
 606 1044 l 257
 533 1044 l 257
112 66 m 257
 112 0 l 257
 1056 0 l 257
 1056 66 l 257
 112 66 l 257
EndSplineSet
EndChar

StartChar: product
Encoding: 469 8719 313
Width: 1436
VWidth: 0
GlyphClass: 2
Flags: W
PickledData: "(dp1
S'org.pippin.gimp.org.kernagic'
p2
(dp3
S'lstem'
p4
I0
sS'rstem'
p5
I0
ssS'com.typemytype.robofont.layerData'
p6
(dp7
S'b'
(dp8
S'name'
p9
S'product'
p10
sS'lib'
p11
(dp12
sS'unicodes'
p13
(tsS'width'
p14
I1533
sS'contours'
p15
(tsS'components'
p16
(tsS'anchors'
p17
(tsssS'org.robofab.postScriptHintData'
p18
(dp19
s."
LayerCount: 2
Fore
SplineSet
221 1457 m 257
 221 0 l 257
 314 0 l 257
 314 1362 l 257
 1186 1362 l 257
 1186 0 l 257
 1279 0 l 257
 1279 1457 l 257
 221 1457 l 257
EndSplineSet
EndChar

StartChar: q
Encoding: 81 113 314
Width: 1232
VWidth: 0
GlyphClass: 2
Flags: W
PickledData: "(dp1
S'org.pippin.gimp.org.kernagic'
p2
(dp3
S'lstem'
p4
I0
sS'rstem'
p5
I0
ssS'com.typemytype.robofont.layerData'
p6
(dp7
sS'org.robofab.postScriptHintData'
p8
(dp9
s."
LayerCount: 2
Fore
SplineSet
948 -490 m 257
 1045 -486 l 257
 1045 1082 l 257
 964 1082 l 257
 955 881 l 257
 908 995 801 1102 604 1102 c 256
 297 1102 119 874 119 542 c 256
 119 213 307 -20 594 -20 c 256
 785 -20 897 82 954 172 c 257
 948 -132 l 257
 948 -490 l 257
594 50 m 256
 357 50 219 239 219 542 c 256
 219 845 363 1032 597 1032 c 256
 755 1032 882 950 948 780 c 257
 948 278 l 257
 894 138 764 50 594 50 c 256
EndSplineSet
EndChar

StartChar: question
Encoding: 31 63 315
Width: 902
VWidth: 0
GlyphClass: 2
Flags: W
PickledData: "(dp1
S'org.pippin.gimp.org.kernagic'
p2
(dp3
S'lstem'
p4
I0
sS'rstem'
p5
I0
ssS'com.typemytype.robofont.layerData'
p6
(dp7
sS'org.robofab.postScriptHintData'
p8
(dp9
s."
LayerCount: 2
Fore
SplineSet
336 392 m 257
 384 392 l 257
 484 772 727 922 727 1219 c 256
 727 1396 593 1514 405 1514 c 256
 286 1514 185 1475 116 1427 c 257
 126 1338 l 257
 164 1363 282 1428 391 1428 c 256
 536 1428 626 1366 626 1211 c 256
 626 942 336 629 336 399 c 258
 336 392 l 257
365 -17 m 256
 441 -17 458 30 458 71 c 256
 458 109 441 157 365 157 c 256
 291 157 277 109 277 71 c 256
 277 33 290 -17 365 -17 c 256
EndSplineSet
EndChar

StartChar: quotedbl
Encoding: 2 34 317
Width: 565
VWidth: 0
GlyphClass: 2
Flags: W
PickledData: "(dp1
S'org.robofab.postScriptHintData'
p2
(dp3
sS'com.typemytype.robofont.layerData'
p4
(dp5
s."
LayerCount: 2
Fore
SplineSet
158 1072 m 257
 191 1072 l 257
 220 1504 l 257
 123 1504 l 257
 158 1072 l 257
372 1072 m 257
 405 1072 l 257
 435 1504 l 257
 337 1504 l 257
 372 1072 l 257
EndSplineSet
EndChar

StartChar: quotedblbase
Encoding: 451 8222 318
Width: 598
VWidth: 0
GlyphClass: 2
Flags: W
PickledData: "(dp1
S'org.robofab.postScriptHintData'
p2
(dp3
s."
LayerCount: 2
Fore
SplineSet
113 -254 m 257
 156 -254 l 257
 247 179 l 257
 176 179 l 257
 113 -254 l 257
336 -254 m 257
 374 -254 l 257
 473 179 l 257
 394 179 l 257
 336 -254 l 257
EndSplineSet
EndChar

StartChar: quotedblleft
Encoding: 449 8220 319
Width: 848
VWidth: 0
GlyphClass: 2
Flags: W
PickledData: "(dp1
S'org.robofab.postScriptHintData'
p2
(dp3
sS'com.typemytype.robofont.layerData'
p4
(dp5
s."
LayerCount: 2
Fore
SplineSet
195 1007 m 257
 299 1007 l 257
 353 1457 l 257
 293 1457 l 257
 195 1007 l 257
488 1007 m 257
 591 1007 l 257
 646 1457 l 257
 586 1457 l 257
 488 1007 l 257
EndSplineSet
EndChar

StartChar: quotedblright
Encoding: 450 8221 320
Width: 848
VWidth: 0
GlyphClass: 2
Flags: W
PickledData: "(dp1
S'org.robofab.postScriptHintData'
p2
(dp3
sS'com.typemytype.robofont.layerData'
p4
(dp5
s."
LayerCount: 2
Fore
SplineSet
488 1007 m 257
 548 1007 l 257
 646 1457 l 257
 542 1457 l 257
 488 1007 l 257
195 1007 m 257
 255 1007 l 257
 353 1457 l 257
 250 1457 l 257
 195 1007 l 257
EndSplineSet
EndChar

StartChar: quoteleft
Encoding: 446 8216 321
Width: 521
VWidth: 0
GlyphClass: 2
Flags: W
PickledData: "(dp1
S'org.robofab.postScriptHintData'
p2
(dp3
sS'com.typemytype.robofont.layerData'
p4
(dp5
s."
LayerCount: 2
Fore
SplineSet
353 1457 m 257
 293 1457 l 257
 195 1007 l 257
 299 1007 l 257
 353 1457 l 257
EndSplineSet
EndChar

StartChar: quoteright
Encoding: 447 8217 322
Width: 521
VWidth: 0
GlyphClass: 2
Flags: W
PickledData: "(dp1
S'org.robofab.postScriptHintData'
p2
(dp3
sS'com.typemytype.robofont.layerData'
p4
(dp5
s."
LayerCount: 2
Fore
SplineSet
195 1007 m 257
 255 1007 l 257
 353 1457 l 257
 250 1457 l 257
 195 1007 l 257
EndSplineSet
EndChar

StartChar: quotesinglbase
Encoding: 448 8218 323
Width: 404
VWidth: 0
GlyphClass: 2
Flags: W
PickledData: "(dp1
S'org.robofab.postScriptHintData'
p2
(dp3
s."
LayerCount: 2
Fore
SplineSet
94 -254 m 257
 142 -254 l 257
 244 179 l 257
 164 179 l 257
 94 -254 l 257
EndSplineSet
EndChar

StartChar: quotesingle
Encoding: 7 39 324
Width: 232
VWidth: 0
GlyphClass: 2
Flags: W
PickledData: "(dp1
S'org.robofab.postScriptHintData'
p2
(dp3
s."
LayerCount: 2
Fore
SplineSet
80 1002 m 257
 138 1002 l 257
 151 1458 l 257
 70 1458 l 257
 80 1002 l 257
EndSplineSet
EndChar

StartChar: r
Encoding: 82 114 325
Width: 773
VWidth: 0
GlyphClass: 2
Flags: W
PickledData: "(dp1
S'org.pippin.gimp.org.kernagic'
p2
(dp3
S'lstem'
p4
I0
sS'rstem'
p5
I352
ssS'com.fontlab.hintData'
p6
(dp7
S'vhints'
p8
((dp9
S'position'
p10
I193
sS'width'
p11
I122
s(dp12
g10
I193
sg11
I92
stp13
sS'hhints'
p14
((dp15
g10
I974
sg11
I94
stp16
ssS'com.typemytype.robofont.layerData'
p17
(dp18
sS'org.robofab.postScriptHintData'
p19
(dp20
s."
HStem: 974 94
VStem: 193 122 193 92
AnchorPoint: "top" 448 1082 basechar 0
AnchorPoint: "bot" 251 0 basechar 0
LayerCount: 2
Fore
SplineSet
188 0 m 257
 285 0 l 257
 285 642 l 258
 285 841 433 1026 624 1026 c 256
 641 1026 669 1023 686 1018 c 257
 695 1091 l 257
 675 1094 645 1096 611 1096 c 256
 482 1096 342 1030 267 821 c 257
 257 1082 l 257
 188 1082 l 257
 188 0 l 257
EndSplineSet
EndChar

StartChar: radical
Encoding: 474 8730 327
Width: 1233
VWidth: 0
GlyphClass: 2
Flags: W
PickledData: "(dp1
S'org.pippin.gimp.org.kernagic'
p2
(dp3
S'lstem'
p4
I0
sS'rstem'
p5
I0
ssS'com.typemytype.robofont.layerData'
p6
(dp7
S'b'
(dp8
S'name'
p9
S'radical'
p10
sS'lib'
p11
(dp12
sS'unicodes'
p13
(tsS'width'
p14
I1136
sS'contours'
p15
(tsS'components'
p16
(tsS'anchors'
p17
(tsssS'org.robofab.postScriptHintData'
p18
(dp19
s."
LayerCount: 2
Fore
SplineSet
1066 1673 m 257
 1056 1659 661 57 651 43 c 257
 554 321 447 590 345 864 c 257
 105 812 l 257
 116 753 l 257
 255 782 l 257
 627 -162 l 257
 700 -162 l 257
 1157 1673 l 257
 1066 1673 l 257
EndSplineSet
EndChar

StartChar: registered
Encoding: 109 174 330
Width: 1965
VWidth: 0
GlyphClass: 2
Flags: W
PickledData: "(dp1
S'org.pippin.gimp.org.kernagic'
p2
(dp3
S'lstem'
p4
I0
sS'rstem'
p5
I0
ssS'com.typemytype.robofont.layerData'
p6
(dp7
sS'org.robofab.postScriptHintData'
p8
(dp9
s."
LayerCount: 2
Fore
SplineSet
674 319 m 257
 760 319 l 257
 760 800 l 257
 1046 800 l 257
 1048 793 1270 319 1270 319 c 257
 1364 319 l 257
 1364 319 1125 826 1134 812 c 257
 1138 812 l 258
 1266 812 1336 911 1336 1052 c 256
 1336 1210 1287 1292 1016 1292 c 258
 674 1292 l 257
 674 319 l 257
762 875 m 257
 762 1218 l 257
 1016 1218 l 258
 1197 1218 1257 1189 1257 1047 c 256
 1257 939 1230 875 1073 875 c 258
 762 875 l 257
980 15 m 256
 642 15 262 235 262 763 c 256
 262 1293 642 1513 980 1513 c 256
 1318 1513 1703 1292 1703 763 c 256
 1703 236 1318 15 980 15 c 256
980 -46 m 256
 1363 -46 1788 195 1788 763 c 256
 1788 1332 1363 1574 980 1574 c 256
 597 1574 176 1332 176 763 c 256
 176 195 596 -46 980 -46 c 256
EndSplineSet
EndChar

StartChar: ring
Encoding: 403 730 331
Width: 624
VWidth: 0
GlyphClass: 4
Flags: W
PickledData: "(dp1
S'org.robofab.postScriptHintData'
p2
(dp3
sS'com.typemytype.robofont.layerData'
p4
(dp5
s."
AnchorPoint: "top" 311 1082 mark 0
LayerCount: 2
Fore
SplineSet
311 1258 m 256
 257 1258 211 1303 211 1358 c 256
 211 1414 256 1457 311 1457 c 256
 366 1457 413 1414 413 1358 c 256
 413 1303 366 1258 311 1258 c 256
311 1203 m 256
 399 1203 475 1267 475 1360 c 256
 475 1451 398 1515 311 1515 c 256
 224 1515 148 1451 148 1360 c 256
 148 1267 224 1203 311 1203 c 256
EndSplineSet
EndChar

StartChar: s
Encoding: 83 115 332
Width: 932
VWidth: 0
GlyphClass: 2
Flags: W
PickledData: "(dp1
S'org.pippin.gimp.org.kernagic'
p2
(dp3
S'lstem'
p4
I168
sS'rstem'
p5
I620
ssS'com.typemytype.robofont.guides'
p6
((dp7
S'y'
I381
sS'x'
I77
sS'magnetic'
p8
I5
sS'angle'
p9
F90
sS'isGlobal'
p10
I00
stp11
sS'com.fontlab.hintData'
p12
(dp13
S'vhints'
p14
((dp15
S'position'
p16
I142
sS'width'
p17
I107
s(dp18
g16
I738
sg17
I104
stp19
sS'hhints'
p20
((dp21
g16
I-19
sg17
I92
s(dp22
g16
I982
sg17
I92
stp23
ssS'com.typemytype.robofont.layerData'
p24
(dp25
sS'org.robofab.postScriptHintData'
p26
(dp27
s."
HStem: -19 92 982 92
VStem: 142 107 738 104
AnchorPoint: "top" 494 1082 basechar 0
AnchorPoint: "bot" 481 0 basechar 0
LayerCount: 2
Fore
SplineSet
182 123 m 257
 151 63 l 257
 256 4 376 -20 479 -20 c 256
 678 -20 820 73 821 267 c 256
 821 431 752 511 549 574 c 257
 393 625 l 258
 268 665 214 731 214 835 c 256
 214 973 348 1031 494 1031 c 256
 581 1031 667 1010 726 974 c 257
 737 974 l 257
 764 1035 l 257
 706 1071 598 1102 490 1102 c 256
 277 1102 127 1009 127 835 c 256
 127 694 202 610 376 556 c 257
 530 507 l 258
 687 458 738 398 738 268 c 256
 738 124 663 53 479 53 c 256
 380 53 278 76 196 123 c 257
 182 123 l 257
EndSplineSet
EndChar

StartChar: section
Encoding: 102 167 338
Width: 1042
VWidth: 0
GlyphClass: 2
Flags: W
PickledData: "(dp1
S'org.pippin.gimp.org.kernagic'
p2
(dp3
S'lstem'
p4
I0
sS'rstem'
p5
I0
ssS'com.typemytype.robofont.layerData'
p6
(dp7
S'b'
(dp8
S'name'
p9
S'section'
p10
sS'lib'
p11
(dp12
sS'unicodes'
p13
(tsS'width'
p14
I1079
sS'contours'
p15
(tsS'components'
p16
(tsS'anchors'
p17
(tsssS'org.robofab.postScriptHintData'
p18
(dp19
s."
LayerCount: 2
Fore
SplineSet
492 -86 m 256
 694 -86 875 1 875 203 c 256
 875 312 811 406 703 457 c 257
 810 504 882 561 882 676 c 256
 882 802 784 849 571 933 c 256
 343 1022 257 1038 257 1205 c 256
 257 1352 397 1421 561 1421 c 256
 651 1421 745 1401 822 1363 c 257
 843 1417 l 257
 755 1454 653 1475 555 1475 c 256
 356 1475 183 1391 183 1204 c 256
 183 1089 236 1016 350 958 c 257
 258 909 186 845 186 730 c 256
 186 570 284 548 499 471 c 256
 756 380 801 313 801 203 c 256
 801 35 657 -29 497 -29 c 256
 392 -29 284 -2 201 39 c 257
 180 -20 l 257
 274 -63 386 -86 492 -86 c 256
652 479 m 256
 649 480 535 523 524 524 c 256
 306 605 256 620 256 734 c 256
 256 857 348 909 412 933 c 256
 413 933 535 883 545 882 c 256
 683 828 815 779 815 678 c 256
 815 539 713 513 652 479 c 256
EndSplineSet
EndChar

StartChar: semicolon
Encoding: 27 59 339
Width: 468
VWidth: 0
GlyphClass: 2
Flags: W
PickledData: "(dp1
S'org.pippin.gimp.org.kernagic'
p2
(dp3
S'lstem'
p4
I0
sS'rstem'
p5
I0
ssS'com.typemytype.robofont.layerData'
p6
(dp7
sS'org.robofab.postScriptHintData'
p8
(dp9
s."
LayerCount: 2
Fore
SplineSet
177 -293 m 257
 216 -293 l 257
 216 -293 296 119 296 168 c 258
 296 196 l 257
 183 196 l 257
 183 74 177 -293 177 -293 c 257
239 883 m 256
 304 883 317 927 317 962 c 256
 317 997 304 1040 239 1040 c 256
 171 1040 159 997 159 962 c 256
 159 928 173 883 239 883 c 256
EndSplineSet
EndChar

StartChar: seven
Encoding: 23 55 340
Width: 1200
VWidth: 0
GlyphClass: 2
Flags: W
PickledData: "(dp1
S'org.pippin.gimp.org.kernagic'
p2
(dp3
S'lstem'
p4
I0
sS'rstem'
p5
I0
ssS'com.typemytype.robofont.layerData'
p6
(dp7
sS'org.robofab.postScriptHintData'
p8
(dp9
s."
LayerCount: 2
Fore
SplineSet
387 0 m 257
 467 0 l 257
 1028 1384 l 257
 1028 1456 l 257
 206 1456 l 257
 238 1387 l 257
 946 1387 l 257
 387 0 l 257
EndSplineSet
EndChar

StartChar: six
Encoding: 22 54 341
Width: 1200
VWidth: 0
GlyphClass: 2
Flags: W
PickledData: "(dp1
S'org.pippin.gimp.org.kernagic'
p2
(dp3
S'lstem'
p4
I0
sS'rstem'
p5
I0
ssS'com.typemytype.robofont.layerData'
p6
(dp7
sS'org.robofab.postScriptHintData'
p8
(dp9
s."
LayerCount: 2
Fore
SplineSet
627 -20 m 256
 910 -20 1065 189 1065 422 c 256
 1065 680 858 835 650 835 c 256
 529 835 414 794 343 732 c 257
 498 970 658 1204 815 1439 c 257
 815 1456 l 257
 725 1456 l 257
 430 1015 l 258
 280 790 193 657 193 425 c 256
 193 216 325 -20 627 -20 c 256
626 56 m 256
 391 56 276 231 276 414 c 256
 276 712 533 764 634 764 c 256
 849 764 981 616 981 423 c 256
 981 236 857 56 626 56 c 256
EndSplineSet
EndChar

StartChar: slash
Encoding: 15 47 342
Width: 1017
VWidth: 0
GlyphClass: 2
Flags: W
PickledData: "(dp1
S'org.pippin.gimp.org.kernagic'
p2
(dp3
S'lstem'
p4
I0
sS'rstem'
p5
I0
ssS'com.typemytype.robofont.layerData'
p6
(dp7
S'b'
(dp8
S'name'
p9
S'slash'
p10
sS'lib'
p11
(dp12
sS'unicodes'
p13
(tsS'width'
p14
I965
sS'contours'
p15
(tsS'components'
p16
(tsS'anchors'
p17
(tsssS'org.robofab.postScriptHintData'
p18
(dp19
s."
LayerCount: 2
Fore
SplineSet
129 -154 m 257
 182 -154 l 257
 907 1560 l 257
 852 1560 l 257
 129 -154 l 257
EndSplineSet
EndChar

StartChar: slashbar
Encoding: 65543 -1 343
Width: 623
VWidth: 0
GlyphClass: 4
Flags: W
PickledData: "(dp1
S'org.pippin.gimp.org.kernagic'
p2
(dp3
S'lstem'
p4
I0
sS'rstem'
p5
I0
ssS'com.typemytype.robofont.layerData'
p6
(dp7
S'b'
(dp8
S'name'
p9
S'slashbar'
p10
sS'lib'
p11
(dp12
sS'unicodes'
p13
(tsS'width'
p14
I908
sS'contours'
p15
(tsS'components'
p16
(tsS'anchors'
p17
(tsssS'org.robofab.postScriptHintData'
p18
(dp19
s."
LayerCount: 2
Fore
SplineSet
75 625 m 257
 570 956 l 257
 570 1040 l 257
 75 709 l 257
 75 625 l 257
EndSplineSet
EndChar

StartChar: sterling
Encoding: 98 163 345
Width: 1231
VWidth: 0
GlyphClass: 2
Flags: W
PickledData: "(dp1
S'org.pippin.gimp.org.kernagic'
p2
(dp3
S'lstem'
p4
I0
sS'rstem'
p5
I0
ssS'com.typemytype.robofont.layerData'
p6
(dp7
S'b'
(dp8
S'name'
p9
S'sterling'
p10
sS'lib'
p11
(dp12
sS'unicodes'
p13
(tsS'width'
p14
I1136
sS'contours'
p15
((dp16
S'points'
p17
((dp18
S'segmentType'
p19
S'line'
p20
sS'x'
I20
sS'smooth'
p21
I00
sS'y'
I0
s(dp22
g19
S'line'
p23
sS'x'
I8
sg21
I00
sS'y'
I115
s(dp24
g19
S'line'
p25
sS'x'
I180
sg21
I00
sS'y'
I132
s(dp26
g19
S'line'
p27
sS'x'
I180
sg21
I00
sS'y'
I683
s(dp28
g19
S'line'
p29
sS'x'
I8
sg21
I00
sS'y'
I683
s(dp30
g19
S'line'
p31
sS'x'
I8
sg21
I00
sS'y'
I806
s(dp32
g19
S'line'
p33
sS'x'
I180
sg21
I00
sS'y'
I806
s(dp34
g19
S'line'
p35
sS'x'
I180
sg21
I01
sS'y'
I920
s(dp36
S'y'
I1183
sS'x'
I180
sg21
I00
s(dp37
S'y'
I1476
sS'x'
I245
sg21
I00
s(dp38
g19
S'curve'
p39
sS'x'
I598
sg21
I01
sS'y'
I1476
s(dp40
S'y'
I1476
sS'x'
I742
sg21
I00
s(dp41
S'y'
I1421
sS'x'
I854
sg21
I00
s(dp42
g19
S'curve'
p43
sS'x'
I939
sg21
I00
sS'y'
I1347
s(dp44
g19
S'line'
p45
sS'x'
I871
sg21
I00
sS'y'
I1229
s(dp46
S'y'
I1297
sS'x'
I785
sg21
I00
s(dp47
S'y'
I1334
sS'x'
I700
sg21
I00
s(dp48
g19
S'curve'
p49
sS'x'
I598
sg21
I01
sS'y'
I1334
s(dp50
S'y'
I1334
sS'x'
I397
sg21
I00
s(dp51
S'y'
I1179
sS'x'
I356
sg21
I00
s(dp52
g19
S'curve'
p53
sS'x'
I356
sg21
I01
sS'y'
I949
s(dp54
g19
S'line'
p55
sS'x'
I356
sg21
I00
sS'y'
I806
s(dp56
g19
S'line'
p57
sS'x'
I739
sg21
I00
sS'y'
I806
s(dp58
g19
S'line'
p59
sS'x'
I739
sg21
I00
sS'y'
I683
s(dp60
g19
S'line'
p61
sS'x'
I356
sg21
I00
sS'y'
I683
s(dp62
g19
S'line'
p63
sS'x'
I356
sg21
I00
sS'y'
I134
s(dp64
g19
S'line'
p65
sS'x'
I953
sg21
I00
sS'y'
I134
s(dp66
g19
S'line'
p67
sS'x'
I940
sg21
I00
sS'y'
I0
stp68
stp69
sS'components'
p70
(tsS'anchors'
p71
(tsssS'org.robofab.postScriptHintData'
p72
(dp73
s."
LayerCount: 2
Fore
SplineSet
1020 1299 m 257
 1057 1355 l 257
 980 1421 876 1475 732 1475 c 256
 351 1475 335 1158 335 865 c 258
 335 753 l 257
 147 753 l 257
 147 694 l 257
 335 694 l 257
 335 63 l 257
 142 51 l 257
 154 0 l 257
 1050 0 l 257
 1056 65 l 257
 413 65 l 257
 413 694 l 257
 844 694 l 257
 844 753 l 257
 413 753 l 257
 413 937 l 258
 413 1215 481 1407 725 1407 c 256
 833 1407 926 1371 1013 1299 c 257
 1020 1299 l 257
EndSplineSet
EndChar

StartChar: t
Encoding: 84 116 347
Width: 757
VWidth: 0
GlyphClass: 2
Flags: W
PickledData: "(dp1
S'org.pippin.gimp.org.kernagic'
p2
(dp3
S'lstem'
p4
I189
sS'rstem'
p5
I480
ssS'com.fontlab.hintData'
p6
(dp7
S'vhints'
p8
((dp9
S'position'
p10
I244
sS'width'
p11
I122
s(dp12
g10
I286
sg11
I80
stp13
sS'hhints'
p14
((dp15
g10
I-11
sg11
I83
stp16
ssS'com.typemytype.robofont.layerData'
p17
(dp18
sS'org.robofab.postScriptHintData'
p19
(dp20
s."
HStem: -11 83
VStem: 244 122 286 80
AnchorPoint: "top" 281 1262 basechar 0
AnchorPoint: "bot" 431 0 basechar 0
LayerCount: 2
Fore
SplineSet
497 -10 m 256
 588 -10 649 2 649 2 c 257
 649 60 l 257
 649 60 578 52 508 52 c 256
 399 52 333 93 333 264 c 258
 333 1029 l 257
 661 1029 l 257
 661 1082 l 257
 333 1082 l 257
 333 1361 l 257
 253 1352 l 257
 237 1083 l 257
 87 1072 l 257
 90 1028 l 257
 236 1028 l 257
 236 255 l 258
 236 61 349 -10 497 -10 c 256
EndSplineSet
EndChar

StartChar: thorn
Encoding: 189 254 351
Width: 1247
VWidth: 0
GlyphClass: 2
Flags: W
PickledData: "(dp1
S'org.pippin.gimp.org.kernagic'
p2
(dp3
S'lstem'
p4
I0
sS'rstem'
p5
I0
ssS'com.typemytype.robofont.layerData'
p6
(dp7
S'b'
(dp8
S'name'
p9
S'thorn'
p10
sS'lib'
p11
(dp12
sS'unicodes'
p13
(tsS'width'
p14
I1221
sS'contours'
p15
(tsS'components'
p16
(tsS'anchors'
p17
(tsssS'org.robofab.postScriptHintData'
p18
(dp19
s."
LayerCount: 2
Fore
SplineSet
182 291 m 257
 182 -512 l 257
 278 -512 l 257
 278 291 l 257
 182 291 l 257
EndSplineSet
Refer: 153 98 N 1 0 0 1 -5 0 2
EndChar

StartChar: three
Encoding: 19 51 352
Width: 1200
VWidth: 0
GlyphClass: 2
Flags: W
PickledData: "(dp1
S'org.pippin.gimp.org.kernagic'
p2
(dp3
S'lstem'
p4
I0
sS'rstem'
p5
I0
ssS'com.typemytype.robofont.layerData'
p6
(dp7
sS'org.robofab.postScriptHintData'
p8
(dp9
s."
LayerCount: 2
Fore
SplineSet
563 -20 m 256
 883 -20 1051 142 1051 391 c 256
 1051 627 912 741 703 778 c 257
 900 816 1014 912 1014 1128 c 256
 1014 1360 809 1476 565 1476 c 256
 428 1476 278 1437 157 1358 c 257
 197 1294 l 257
 199 1294 l 257
 305 1363 447 1402 570 1402 c 256
 758 1402 928 1329 928 1124 c 256
 928 858 691 828 484 818 c 257
 422 818 l 257
 434 737 l 257
 482 737 l 257
 733 732 969 688 969 383 c 256
 969 151 813 52 570 52 c 256
 414 52 280 103 217 143 c 257
 209 143 l 257
 170 86 l 257
 219 55 359 -20 563 -20 c 256
EndSplineSet
EndChar

StartChar: threequarters
Encoding: 125 190 353
Width: 1714
VWidth: 0
GlyphClass: 3
Flags: W
PickledData: "(dp1
S'org.pippin.gimp.org.kernagic'
p2
(dp3
S'lstem'
p4
I0
sS'rstem'
p5
I0
ssS'com.typemytype.robofont.layerData'
p6
(dp7
sS'org.robofab.postScriptHintData'
p8
(dp9
s."
LayerCount: 2
Fore
SplineSet
352 663 m 256
 489 663 616 731 616 889 c 256
 616 999 546 1079 443 1102 c 257
 538 1119 602 1198 602 1297 c 256
 602 1446 492 1512 366 1512 c 256
 283 1512 193 1483 123 1429 c 257
 162 1374 l 257
 222 1419 297 1445 363 1445 c 256
 452 1445 524 1399 524 1295 c 256
 524 1196 460 1135 329 1135 c 258
 251 1135 l 257
 251 1068 l 257
 329 1068 l 258
 465 1068 532 1000 532 889 c 256
 532 774 447 729 350 729 c 256
 283 729 210 750 156 786 c 257
 127 729 l 257
 188 686 271 663 352 663 c 256
1398 -1 m 257
 1474 -1 l 257
 1474 218 l 257
 1601 218 l 257
 1594 275 l 257
 1476 275 l 257
 1476 828 l 257
 1388 828 l 257
 1001 265 l 257
 1001 218 l 257
 1398 218 l 257
 1398 -1 l 257
418 0 m 257
 498 0 l 257
 1372 1525 l 257
 1291 1525 l 257
 418 0 l 257
1088 275 m 257
 1399 738 l 257
 1399 275 l 257
 1088 275 l 257
EndSplineSet
Ligature2: "fracDiagonalFractionslookup11 subtable" three slash four
EndChar

StartChar: tilde
Encoding: 405 732 354
Width: 1006
VWidth: 0
GlyphClass: 4
Flags: W
PickledData: "(dp1
S'org.robofab.postScriptHintData'
p2
(dp3
sS'com.fontlab.hintData'
p4
(dp5
S'vhints'
p6
((dp7
S'position'
p8
I169
sS'width'
p9
I63
s(dp10
g8
I657
sg9
I67
stp11
sS'hhints'
p12
((dp13
g8
I1301
sg9
I88
s(dp14
g8
I1400
sg9
I79
stp15
ssS'com.typemytype.robofont.layerData'
p16
(dp17
s."
HStem: 1301 88 1400 79
VStem: 169 63 657 67
AnchorPoint: "top" 502 1082 mark 0
LayerCount: 2
Fore
SplineSet
194 1328 m 257
 245 1328 l 257
 248 1397 273 1428 309 1428 c 256
 387 1428 522 1328 622 1328 c 256
 662 1328 733 1334 733 1491 c 257
 676 1491 l 257
 671 1423 650 1400 615 1400 c 256
 547 1400 430 1492 323 1492 c 256
 269 1492 194 1481 194 1328 c 257
EndSplineSet
EndChar

StartChar: trademark
Encoding: 463 8482 355
Width: 1914
VWidth: 0
GlyphClass: 2
Flags: W
PickledData: "(dp1
S'org.robofab.postScriptHintData'
p2
(dp3
sS'com.typemytype.robofont.layerData'
p4
(dp5
S'b'
(dp6
S'name'
p7
S'trademark'
p8
sS'lib'
p9
(dp10
sS'unicodes'
p11
(tsS'width'
p12
I2216
sS'contours'
p13
(tsS'components'
p14
(tsS'anchors'
p15
(tsss."
LayerCount: 2
Fore
SplineSet
883 529 m 257
 934 529 l 257
 959 1348 l 257
 1313 631 l 257
 1347 631 l 257
 1678 1347 l 257
 1697 529 l 257
 1754 529 l 257
 1723 1455 l 257
 1676 1455 l 257
 1330 709 l 257
 960 1455 l 257
 914 1455 l 257
 883 529 l 257
388 529 m 257
 445 529 l 257
 445 1410 l 257
 703 1410 l 257
 703 1455 l 257
 102 1455 l 257
 101 1410 l 257
 388 1410 l 257
 388 529 l 257
EndSplineSet
EndChar

StartChar: two
Encoding: 18 50 356
Width: 1200
VWidth: 0
GlyphClass: 2
Flags: W
PickledData: "(dp1
S'org.pippin.gimp.org.kernagic'
p2
(dp3
S'lstem'
p4
I0
sS'rstem'
p5
I0
ssS'com.typemytype.robofont.layerData'
p6
(dp7
sS'org.robofab.postScriptHintData'
p8
(dp9
s."
LayerCount: 2
Fore
SplineSet
182 1308 m 257
 293 1373 421 1407 546 1407 c 256
 680 1407 911 1358 911 1076 c 256
 911 860 826 806 676 653 c 258
 107 71 l 257
 144 0 l 257
 1011 0 l 257
 1015 73 l 257
 220 73 l 257
 747 611 l 258
 940 807 1001 865 1001 1095 c 256
 1001 1403 682 1476 540 1476 c 256
 381 1476 223 1421 139 1368 c 257
 171 1308 l 257
 182 1308 l 257
EndSplineSet
EndChar

StartChar: u
Encoding: 85 117 357
Width: 1169
VWidth: 0
GlyphClass: 2
Flags: W
PickledData: "(dp1
S'org.pippin.gimp.org.kernagic'
p2
(dp3
S'lstem'
p4
I0
sS'rstem'
p5
I0
ssS'com.fontlab.hintData'
p6
(dp7
S'vhints'
p8
((dp9
S'position'
p10
I162
sS'width'
p11
I166
s(dp12
g10
I862
sg11
I166
stp13
sS'hhints'
p14
((dp15
g10
I-21
sg11
I126
stp16
ssS'com.typemytype.robofont.layerData'
p17
(dp18
sS'org.robofab.postScriptHintData'
p19
(dp20
s."
HStem: -21 126
VStem: 162 166 862 166
AnchorPoint: "top" 585 1082 basechar 0
AnchorPoint: "bot" 581 0 basechar 0
LayerCount: 2
Fore
SplineSet
887 235 m 257
 831 132 736 50 549 50 c 256
 353 50 273 177 273 371 c 258
 273 1082 l 257
 175 1082 l 257
 175 422 l 258
 175 118 307 -20 548 -20 c 256
 719 -20 816 26 889 148 c 257
 901 0 l 257
 984 0 l 257
 984 1082 l 257
 887 1082 l 257
 887 235 l 257
EndSplineSet
EndChar

StartChar: underscore
Encoding: 63 95 365
Width: 853
VWidth: 0
GlyphClass: 2
Flags: W
PickledData: "(dp1
S'org.pippin.gimp.org.kernagic'
p2
(dp3
S'lstem'
p4
I0
sS'rstem'
p5
I0
ssS'com.typemytype.robofont.layerData'
p6
(dp7
sS'org.robofab.postScriptHintData'
p8
(dp9
s."
LayerCount: 2
Fore
SplineSet
0 -244 m 257
 853 -244 l 257
 853 -171 l 257
 0 -171 l 257
 0 -244 l 257
EndSplineSet
EndChar

StartChar: uni00AD
Encoding: 108 173 368
Width: 1152
VWidth: 0
GlyphClass: 2
Flags: W
PickledData: "(dp1
S'org.robofab.postScriptHintData'
p2
(dp3
s."
LayerCount: 2
Fore
SplineSet
145 101 m 257
 993 101 l 257
 993 178 l 257
 145 178 l 257
 145 101 l 257
EndSplineSet
EndChar

StartChar: uni00B2
Encoding: 113 178 369
Width: 734
VWidth: 0
GlyphClass: 2
Flags: W
PickledData: "(dp1
S'org.robofab.postScriptHintData'
p2
(dp3
sS'com.typemytype.robofont.layerData'
p4
(dp5
s."
LayerCount: 2
Fore
SplineSet
147 695 m 257
 625 695 l 257
 626 754 l 257
 246 754 l 257
 336 848 403 917 461 976 c 256
 575 1093 627 1162 627 1280 c 256
 627 1439 512 1521 367 1521 c 256
 234 1521 138 1471 68 1385 c 257
 115 1340 l 257
 180 1415 253 1459 373 1459 c 256
 488 1459 553 1385 553 1279 c 256
 553 1200 518 1136 409 1016 c 256
 343 949 262 867 147 756 c 257
 147 695 l 257
EndSplineSet
EndChar

StartChar: uni00B3
Encoding: 114 179 370
Width: 870
VWidth: 0
GlyphClass: 2
Flags: W
PickledData: "(dp1
S'org.robofab.postScriptHintData'
p2
(dp3
sS'com.typemytype.robofont.layerData'
p4
(dp5
s."
LayerCount: 2
Fore
SplineSet
442 673 m 256
 571 673 689 746 689 896 c 256
 689 1015 611 1081 522 1105 c 257
 611 1128 684 1192 684 1305 c 256
 684 1455 568 1518 439 1518 c 256
 333 1518 237 1483 187 1419 c 257
 228 1373 l 257
 271 1422 334 1457 440 1457 c 256
 540 1457 616 1409 616 1306 c 256
 616 1205 540 1132 422 1132 c 258
 315 1132 l 257
 315 1075 l 257
 422 1075 l 258
 540 1075 620 1002 620 895 c 256
 620 792 544 734 443 734 c 256
 337 734 270 769 227 818 c 257
 187 772 l 257
 237 708 336 673 442 673 c 256
EndSplineSet
EndChar

StartChar: mu
Encoding: 116 181 371
Width: 1168
VWidth: 0
GlyphClass: 2
Flags: W
PickledData: "(dp1
S'org.robofab.postScriptHintData'
p2
(dp3
sS'com.typemytype.robofont.layerData'
p4
(dp5
s."
LayerCount: 2
Fore
SplineSet
887 235 m 257
 831 132 736 50 549 50 c 256
 353 50 273 177 273 371 c 258
 273 1082 l 257
 175 1082 l 257
 175 -357 l 257
 273 -357 l 257
 273 85 l 257
 336 14 429 -20 548 -20 c 256
 719 -20 816 26 889 148 c 257
 901 0 l 257
 984 0 l 257
 984 1082 l 257
 887 1082 l 257
 887 235 l 257
EndSplineSet
EndChar

StartChar: uni00B9
Encoding: 120 185 372
Width: 907
VWidth: 0
GlyphClass: 2
Flags: W
PickledData: "(dp1
S'org.robofab.postScriptHintData'
p2
(dp3
sS'com.typemytype.robofont.layerData'
p4
(dp5
s."
LayerCount: 2
Fore
SplineSet
284 695 m 257
 761 695 l 257
 761 754 l 257
 571 754 l 257
 571 1511 l 257
 498 1511 l 257
 452 1465 345 1427 287 1414 c 257
 287 1352 l 257
 351 1367 449 1399 487 1426 c 257
 487 754 l 257
 284 754 l 257
 284 695 l 257
EndSplineSet
EndChar

StartChar: uni02C9
Encoding: 400 713 435
Width: 600
VWidth: 0
GlyphClass: 4
Flags: W
PickledData: "(dp1
S'org.robofab.postScriptHintData'
p2
(dp3
s."
AnchorPoint: "top" 320 1082 mark 0
LayerCount: 2
Fore
SplineSet
40 1286 m 257
 562 1286 l 257
 562 1373 l 257
 40 1373 l 257
 40 1286 l 257
EndSplineSet
EndChar

StartChar: uni0307
Encoding: 407 775 436
Width: 271
VWidth: 0
GlyphClass: 4
Flags: W
PickledData: "(dp1
S'org.robofab.postScriptHintData'
p2
(dp3
sS'com.typemytype.robofont.layerData'
p4
(dp5
s."
AnchorPoint: "top" 141 1082 mark 0
LayerCount: 2
Fore
SplineSet
217 1449 m 256
 217 1497 194 1521 144 1521 c 256
 93 1521 70 1497 70 1449 c 256
 70 1401 93 1377 144 1377 c 256
 194 1377 217 1401 217 1449 c 256
EndSplineSet
EndChar

StartChar: uni2074
Encoding: 460 8308 455
Width: 713
VWidth: 0
GlyphClass: 2
Flags: W
PickledData: "(dp1
S'org.robofab.postScriptHintData'
p2
(dp3
sS'com.typemytype.robofont.layerData'
p4
(dp5
s."
LayerCount: 2
Fore
SplineSet
461 656 m 257
 545 656 l 257
 543 888 l 257
 675 888 l 257
 672 947 l 257
 547 947 l 257
 547 1515 l 257
 455 1515 l 257
 100 952 l 257
 100 888 l 257
 461 888 l 257
 461 656 l 257
182 947 m 257
 463 1414 l 257
 461 947 l 257
 182 947 l 257
EndSplineSet
EndChar

StartChar: afii61289
Encoding: 462 8467 456
Width: 1098
VWidth: 0
GlyphClass: 2
Flags: W
PickledData: "(dp1
S'org.robofab.postScriptHintData'
p2
(dp3
s."
LayerCount: 2
Fore
SplineSet
315 224 m 256
 315 48 394 -21 523 -21 c 256
 715 -21 843 98 843 98 c 257
 824 150 l 257
 721 84 637 47 552 47 c 256
 449 47 408 102 408 207 c 256
 408 263 420 334 440 417 c 258
 485 598 l 257
 786 865 l 258
 1021 1073 1110 1214 1110 1424 c 256
 1110 1606 999 1670 884 1671 c 256
 778 1671 667 1631 603 1396 c 258
 391 613 l 257
 90 380 l 257
 125 334 l 257
 370 525 l 257
 332 403 315 303 315 224 c 256
508 697 m 257
 678 1408 l 257
 713 1549 789 1605 883 1605 c 258
 885 1605 l 258
 996 1605 1040 1532 1040 1422 c 256
 1040 1286 988 1126 760 922 c 256
 758 922 567 750 508 697 c 257
EndSplineSet
EndChar

StartChar: Delta
Encoding: 468 8710 458
Width: 1352
VWidth: 0
GlyphClass: 2
Flags: W
PickledData: "(dp1
S'org.pippin.gimp.org.kernagic'
p2
(dp3
S'lstem'
p4
I0
sS'rstem'
p5
I0
ssS'com.typemytype.robofont.layerData'
p6
(dp7
S'b'
(dp8
S'name'
p9
S'uni2206'
p10
sS'lib'
p11
(dp12
sS'unicodes'
p13
(tsS'width'
p14
I1278
sS'contours'
p15
(tsS'components'
p16
(tsS'anchors'
p17
(tsssS'org.robofab.postScriptHintData'
p18
(dp19
s."
LayerCount: 2
Fore
SplineSet
631 1501 m 257
 103 83 l 257
 103 0 l 257
 1252 0 l 257
 1252 83 l 257
 725 1501 l 257
 631 1501 l 257
703 1311 m 257
 1139 101 l 257
 193 101 l 257
 637 1311 l 257
 669 1426 l 257
 703 1311 l 257
EndSplineSet
EndChar

StartChar: v
Encoding: 86 118 469
Width: 1038
VWidth: 0
GlyphClass: 2
Flags: W
PickledData: "(dp1
S'org.pippin.gimp.org.kernagic'
p2
(dp3
S'lstem'
p4
I0
sS'rstem'
p5
I0
ssS'com.typemytype.robofont.guides'
p6
((dp7
S'y'
I552
sS'x'
I438
sS'magnetic'
p8
I5
sS'angle'
p9
I0
sS'isGlobal'
p10
I00
stp11
sS'com.typemytype.robofont.layerData'
p12
(dp13
sS'org.robofab.postScriptHintData'
p14
(dp15
s."
LayerCount: 2
Fore
SplineSet
465 0 m 257
 573 0 l 257
 976 1082 l 257
 882 1082 l 257
 762 745 645 405 517 77 c 257
 391 406 275 745 156 1082 c 257
 62 1082 l 257
 465 0 l 257
EndSplineSet
EndChar

StartChar: w
Encoding: 87 119 470
Width: 1508
VWidth: 0
GlyphClass: 2
Flags: W
PickledData: "(dp1
S'org.pippin.gimp.org.kernagic'
p2
(dp3
S'lstem'
p4
I0
sS'rstem'
p5
I0
ssS'com.typemytype.robofont.layerData'
p6
(dp7
sS'org.robofab.postScriptHintData'
p8
(dp9
s."
AnchorPoint: "top" 754 1082 basechar 0
LayerCount: 2
Fore
SplineSet
755 994 m 257
 1087 0 l 257
 1160 0 l 257
 1445 1082 l 257
 1362 1082 l 257
 1121 92 l 257
 804 1054 l 257
 704 1054 l 257
 382 92 l 257
 150 1082 l 257
 63 1082 l 257
 342 0 l 257
 418 0 l 257
 755 994 l 257
EndSplineSet
EndChar

StartChar: x
Encoding: 88 120 475
Width: 1013
VWidth: 0
GlyphClass: 2
Flags: W
PickledData: "(dp1
S'org.pippin.gimp.org.kernagic'
p2
(dp3
S'lstem'
p4
I0
sS'rstem'
p5
I0
ssS'com.fontlab.hintData'
p6
(dp7
S'hhints'
p8
((dp9
S'position'
p10
I0
sS'width'
p11
I22
s(dp12
g10
I1034
sg11
I21
stp13
ssS'com.typemytype.robofont.layerData'
p14
(dp15
sS'org.robofab.postScriptHintData'
p16
(dp17
s."
HStem: 0 22 1034 21
LayerCount: 2
Fore
SplineSet
576 541 m 257
 971 1082 l 257
 864 1082 l 257
 529 607 l 257
 186 1082 l 257
 79 1082 l 257
 463 552 l 257
 46 0 l 257
 153 0 l 257
 512 484 l 257
 862 0 l 257
 966 0 l 257
 576 541 l 257
EndSplineSet
EndChar

StartChar: y
Encoding: 89 121 476
Width: 1070
VWidth: 0
GlyphClass: 2
Flags: W
PickledData: "(dp1
S'org.pippin.gimp.org.kernagic'
p2
(dp3
S'lstem'
p4
I0
sS'rstem'
p5
I0
ssS'com.typemytype.robofont.layerData'
p6
(dp7
sS'org.robofab.postScriptHintData'
p8
(dp9
s."
AnchorPoint: "top" 564 1082 basechar 0
LayerCount: 2
Fore
SplineSet
1013 1082 m 257
 920 1082 l 257
 572 162 l 257
 172 1082 l 257
 74 1082 l 257
 529 50 l 257
 363 -369 l 257
 439 -401 l 257
 1013 1082 l 257
EndSplineSet
EndChar

StartChar: yen
Encoding: 100 165 480
Width: 1231
VWidth: 0
GlyphClass: 2
Flags: W
PickledData: "(dp1
S'org.pippin.gimp.org.kernagic'
p2
(dp3
S'lstem'
p4
I0
sS'rstem'
p5
I0
ssS'com.typemytype.robofont.layerData'
p6
(dp7
S'b'
(dp8
S'name'
p9
S'yen'
p10
sS'lib'
p11
(dp12
sS'unicodes'
p13
(tsS'width'
p14
I1366
sS'contours'
p15
(tsS'components'
p16
(tsS'anchors'
p17
(tsssS'org.robofab.postScriptHintData'
p18
(dp19
s."
LayerCount: 2
Fore
SplineSet
253 326 m 257
 991 326 l 257
 991 388 l 257
 253 388 l 257
 253 326 l 257
253 625 m 257
 991 625 l 257
 991 687 l 257
 253 687 l 257
 253 625 l 257
EndSplineSet
Refer: 122 89 N 1 0 0 1 0 0 2
EndChar

StartChar: z
Encoding: 90 122 482
Width: 896
VWidth: 0
GlyphClass: 2
Flags: W
PickledData: "(dp1
S'org.pippin.gimp.org.kernagic'
p2
(dp3
S'lstem'
p4
I0
sS'rstem'
p5
I0
ssS'com.typemytype.robofont.layerData'
p6
(dp7
sS'org.robofab.postScriptHintData'
p8
(dp9
s."
AnchorPoint: "top" 476 1082 basechar 0
AnchorPoint: "bot" 446 0 basechar 0
LayerCount: 2
Fore
SplineSet
142 1082 m 257
 142 1019 l 257
 702 1019 l 257
 121 66 l 257
 121 0 l 257
 789 0 l 257
 788 61 l 257
 200 61 l 257
 784 1018 l 257
 784 1082 l 257
 142 1082 l 257
EndSplineSet
EndChar

StartChar: zero
Encoding: 16 48 486
Width: 1235
VWidth: 0
GlyphClass: 2
Flags: W
PickledData: "(dp1
S'org.pippin.gimp.org.kernagic'
p2
(dp3
S'lstem'
p4
I0
sS'rstem'
p5
I0
ssS'com.typemytype.robofont.layerData'
p6
(dp7
S'b'
(dp8
S'name'
p9
S'zero'
p10
sS'lib'
p11
(dp12
sS'unicodes'
p13
(tsS'width'
p14
I1248
sS'contours'
p15
(tsS'components'
p16
(tsS'anchors'
p17
(tsssS'org.robofab.postScriptHintData'
p18
(dp19
s."
LayerCount: 2
Fore
SplineSet
621 59 m 256
 413 59 240 203 240 727 c 258
 240 739 l 258
 240 1221 413 1395 621 1395 c 256
 827 1395 987 1269 987 729 c 256
 987 205 827 59 621 59 c 256
621 -20 m 256
 934 -20 1079 249 1079 725 c 256
 1079 1237 909 1476 621 1476 c 256
 330 1476 145 1234 145 725 c 256
 145 249 306 -20 621 -20 c 256
EndSplineSet
EndChar

StartChar: uni0237
Encoding: 396 567 489
Width: 495
VWidth: 0
GlyphClass: 2
Flags: W
AnchorPoint: "top" 273 1081 basechar 0
LayerCount: 2
Fore
SplineSet
222 1082 m 257
 222 57 l 258
 222 -150 220 -221 66 -221 c 257
 29 -222 l 257
 25 -310 l 257
 80 -310 l 257
 225 -309 319 -245 319 -20 c 258
 319 1082 l 257
 222 1082 l 257
EndSplineSet
EndChar

StartChar: uni0358
Encoding: 412 856 490
Width: 271
VWidth: 0
GlyphClass: 4
Flags: W
AnchorPoint: "top" 141 1082 mark 0
LayerCount: 2
Fore
SplineSet
217 1449 m 256
 217 1497 194 1521 144 1521 c 256
 93 1521 70 1497 70 1449 c 256
 70 1401 93 1377 144 1377 c 256
 194 1377 217 1401 217 1449 c 256
EndSplineSet
EndChar

StartChar: Sigma
Encoding: 414 931 491
Width: 1340
VWidth: 0
GlyphClass: 2
Flags: W
LayerCount: 2
Fore
SplineSet
151 1556 m 257
 151 1493 l 257
 754 684 l 257
 127 -99 l 257
 127 -160 l 257
 1182 -160 l 257
 1182 -70 l 257
 240 -70 l 257
 856 691 l 257
 247 1478 l 257
 1145 1478 l 257
 1145 1556 l 257
 151 1556 l 257
EndSplineSet
EndChar

StartChar: uni03BC
Encoding: 416 956 492
Width: 1168
VWidth: 0
GlyphClass: 2
Flags: W
LayerCount: 2
Fore
SplineSet
887 235 m 257
 831 132 736 50 549 50 c 256
 353 50 273 177 273 371 c 258
 273 1082 l 257
 175 1082 l 257
 175 -357 l 257
 273 -357 l 257
 273 85 l 257
 336 14 429 -20 548 -20 c 256
 719 -20 816 26 889 148 c 257
 901 0 l 257
 984 0 l 257
 984 1082 l 257
 887 1082 l 257
 887 235 l 257
EndSplineSet
EndChar

StartChar: emptyset
Encoding: 467 8709 493
Width: 1678
VWidth: 0
GlyphClass: 2
Flags: W
LayerCount: 2
Fore
SplineSet
112 733 m 256
 112 1150 459 1473 832 1473 c 256
 1006 1473 1174 1403 1304 1286 c 257
 1481 1485 l 257
 1518 1456 l 257
 1337 1254 l 257
 1467 1122 1552 939 1552 733 c 256
 1552 316 1205 -7 832 -7 c 256
 662 -7 498 60 369 172 c 257
 177 -43 l 257
 145 -14 l 257
 337 202 l 257
 201 335 112 522 112 733 c 256
398 204 m 257
 519 99 673 37 832 37 c 256
 1183 37 1509 341 1509 733 c 256
 1509 926 1430 1097 1308 1222 c 257
 398 204 l 257
366 234 m 257
 1275 1254 l 257
 1153 1364 995 1429 832 1429 c 256
 481 1429 155 1125 155 733 c 256
 155 535 238 359 366 234 c 257
EndSplineSet
EndChar

StartChar: uni03A9
Encoding: 415 937 494
Width: 1503
VWidth: 0
GlyphClass: 2
Flags: W
LayerCount: 2
Fore
SplineSet
1278 751 m 256
 1278 1065 1103 1344 758 1344 c 256
 445 1344 226 1105 226 756 c 256
 226 474 368 211 566 72 c 257
 566 0 l 257
 117 0 l 257
 108 67 l 257
 489 67 l 257
 278 220 140 445 140 773 c 256
 140 1169 397 1422 763 1422 c 256
 1142 1422 1363 1142 1363 770 c 256
 1363 444 1201 216 1016 67 c 257
 1385 67 l 257
 1377 0 l 257
 936 0 l 257
 936 72 l 257
 1134 215 1278 469 1278 751 c 256
EndSplineSet
EndChar

StartChar: uni0259
Encoding: 397 601 495
Width: 1122
VWidth: 0
Flags: HW
HStem: 1007 94 8 92
LayerCount: 2
Fore
SplineSet
524 1102 m 260
 372 1102 260 1063 160 1009 c 261
 193 944 l 261
 204 944 l 261
 304 999 404 1028 512 1028 c 260
 729 1028 909 877 918 536 c 261
 142 536 l 261
 142 536 137 503 137 470 c 260
 137 162.6796875 278.396484375 -20 530 -20 c 260
 782 -20 1010 180 1010 545 c 260
 1010 879 809 1102 524 1102 c 260
913 474 m 261
 890 228 749 52 520 52 c 260
 309 52 220 198 213 474 c 261
 913 474 l 261
EndSplineSet
EndChar
